G04 #@! TF.GenerationSoftware,KiCad,Pcbnew,(5.1.4)-1*
G04 #@! TF.CreationDate,2021-04-01T21:41:31+08:00*
G04 #@! TF.ProjectId,ma730,6d613733-302e-46b6-9963-61645f706362,rev?*
G04 #@! TF.SameCoordinates,Original*
G04 #@! TF.FileFunction,Paste,Top*
G04 #@! TF.FilePolarity,Positive*
%FSLAX46Y46*%
G04 Gerber Fmt 4.6, Leading zero omitted, Abs format (unit mm)*
G04 Created by KiCad (PCBNEW (5.1.4)-1) date 2021-04-01 21:41:31*
%MOMM*%
%LPD*%
G04 APERTURE LIST*
%ADD10C,0.100000*%
%ADD11C,1.000000*%
%ADD12C,0.600000*%
%ADD13C,0.950000*%
G04 APERTURE END LIST*
D10*
G36*
X103249504Y-105201204D02*
G01*
X103273773Y-105204804D01*
X103297571Y-105210765D01*
X103320671Y-105219030D01*
X103342849Y-105229520D01*
X103363893Y-105242133D01*
X103383598Y-105256747D01*
X103401777Y-105273223D01*
X103418253Y-105291402D01*
X103432867Y-105311107D01*
X103445480Y-105332151D01*
X103455970Y-105354329D01*
X103464235Y-105377429D01*
X103470196Y-105401227D01*
X103473796Y-105425496D01*
X103475000Y-105450000D01*
X103475000Y-107750000D01*
X103473796Y-107774504D01*
X103470196Y-107798773D01*
X103464235Y-107822571D01*
X103455970Y-107845671D01*
X103445480Y-107867849D01*
X103432867Y-107888893D01*
X103418253Y-107908598D01*
X103401777Y-107926777D01*
X103383598Y-107943253D01*
X103363893Y-107957867D01*
X103342849Y-107970480D01*
X103320671Y-107980970D01*
X103297571Y-107989235D01*
X103273773Y-107995196D01*
X103249504Y-107998796D01*
X103225000Y-108000000D01*
X102725000Y-108000000D01*
X102700496Y-107998796D01*
X102676227Y-107995196D01*
X102652429Y-107989235D01*
X102629329Y-107980970D01*
X102607151Y-107970480D01*
X102586107Y-107957867D01*
X102566402Y-107943253D01*
X102548223Y-107926777D01*
X102531747Y-107908598D01*
X102517133Y-107888893D01*
X102504520Y-107867849D01*
X102494030Y-107845671D01*
X102485765Y-107822571D01*
X102479804Y-107798773D01*
X102476204Y-107774504D01*
X102475000Y-107750000D01*
X102475000Y-105450000D01*
X102476204Y-105425496D01*
X102479804Y-105401227D01*
X102485765Y-105377429D01*
X102494030Y-105354329D01*
X102504520Y-105332151D01*
X102517133Y-105311107D01*
X102531747Y-105291402D01*
X102548223Y-105273223D01*
X102566402Y-105256747D01*
X102586107Y-105242133D01*
X102607151Y-105229520D01*
X102629329Y-105219030D01*
X102652429Y-105210765D01*
X102676227Y-105204804D01*
X102700496Y-105201204D01*
X102725000Y-105200000D01*
X103225000Y-105200000D01*
X103249504Y-105201204D01*
X103249504Y-105201204D01*
G37*
D11*
X102975000Y-106600000D03*
D10*
G36*
X93299504Y-105201204D02*
G01*
X93323773Y-105204804D01*
X93347571Y-105210765D01*
X93370671Y-105219030D01*
X93392849Y-105229520D01*
X93413893Y-105242133D01*
X93433598Y-105256747D01*
X93451777Y-105273223D01*
X93468253Y-105291402D01*
X93482867Y-105311107D01*
X93495480Y-105332151D01*
X93505970Y-105354329D01*
X93514235Y-105377429D01*
X93520196Y-105401227D01*
X93523796Y-105425496D01*
X93525000Y-105450000D01*
X93525000Y-107750000D01*
X93523796Y-107774504D01*
X93520196Y-107798773D01*
X93514235Y-107822571D01*
X93505970Y-107845671D01*
X93495480Y-107867849D01*
X93482867Y-107888893D01*
X93468253Y-107908598D01*
X93451777Y-107926777D01*
X93433598Y-107943253D01*
X93413893Y-107957867D01*
X93392849Y-107970480D01*
X93370671Y-107980970D01*
X93347571Y-107989235D01*
X93323773Y-107995196D01*
X93299504Y-107998796D01*
X93275000Y-108000000D01*
X92775000Y-108000000D01*
X92750496Y-107998796D01*
X92726227Y-107995196D01*
X92702429Y-107989235D01*
X92679329Y-107980970D01*
X92657151Y-107970480D01*
X92636107Y-107957867D01*
X92616402Y-107943253D01*
X92598223Y-107926777D01*
X92581747Y-107908598D01*
X92567133Y-107888893D01*
X92554520Y-107867849D01*
X92544030Y-107845671D01*
X92535765Y-107822571D01*
X92529804Y-107798773D01*
X92526204Y-107774504D01*
X92525000Y-107750000D01*
X92525000Y-105450000D01*
X92526204Y-105425496D01*
X92529804Y-105401227D01*
X92535765Y-105377429D01*
X92544030Y-105354329D01*
X92554520Y-105332151D01*
X92567133Y-105311107D01*
X92581747Y-105291402D01*
X92598223Y-105273223D01*
X92616402Y-105256747D01*
X92636107Y-105242133D01*
X92657151Y-105229520D01*
X92679329Y-105219030D01*
X92702429Y-105210765D01*
X92726227Y-105204804D01*
X92750496Y-105201204D01*
X92775000Y-105200000D01*
X93275000Y-105200000D01*
X93299504Y-105201204D01*
X93299504Y-105201204D01*
G37*
D11*
X93025000Y-106600000D03*
D10*
G36*
X101289703Y-109100722D02*
G01*
X101304264Y-109102882D01*
X101318543Y-109106459D01*
X101332403Y-109111418D01*
X101345710Y-109117712D01*
X101358336Y-109125280D01*
X101370159Y-109134048D01*
X101381066Y-109143934D01*
X101390952Y-109154841D01*
X101399720Y-109166664D01*
X101407288Y-109179290D01*
X101413582Y-109192597D01*
X101418541Y-109206457D01*
X101422118Y-109220736D01*
X101424278Y-109235297D01*
X101425000Y-109250000D01*
X101425000Y-110650000D01*
X101424278Y-110664703D01*
X101422118Y-110679264D01*
X101418541Y-110693543D01*
X101413582Y-110707403D01*
X101407288Y-110720710D01*
X101399720Y-110733336D01*
X101390952Y-110745159D01*
X101381066Y-110756066D01*
X101370159Y-110765952D01*
X101358336Y-110774720D01*
X101345710Y-110782288D01*
X101332403Y-110788582D01*
X101318543Y-110793541D01*
X101304264Y-110797118D01*
X101289703Y-110799278D01*
X101275000Y-110800000D01*
X100975000Y-110800000D01*
X100960297Y-110799278D01*
X100945736Y-110797118D01*
X100931457Y-110793541D01*
X100917597Y-110788582D01*
X100904290Y-110782288D01*
X100891664Y-110774720D01*
X100879841Y-110765952D01*
X100868934Y-110756066D01*
X100859048Y-110745159D01*
X100850280Y-110733336D01*
X100842712Y-110720710D01*
X100836418Y-110707403D01*
X100831459Y-110693543D01*
X100827882Y-110679264D01*
X100825722Y-110664703D01*
X100825000Y-110650000D01*
X100825000Y-109250000D01*
X100825722Y-109235297D01*
X100827882Y-109220736D01*
X100831459Y-109206457D01*
X100836418Y-109192597D01*
X100842712Y-109179290D01*
X100850280Y-109166664D01*
X100859048Y-109154841D01*
X100868934Y-109143934D01*
X100879841Y-109134048D01*
X100891664Y-109125280D01*
X100904290Y-109117712D01*
X100917597Y-109111418D01*
X100931457Y-109106459D01*
X100945736Y-109102882D01*
X100960297Y-109100722D01*
X100975000Y-109100000D01*
X101275000Y-109100000D01*
X101289703Y-109100722D01*
X101289703Y-109100722D01*
G37*
D12*
X101125000Y-109950000D03*
D10*
G36*
X100039703Y-109100722D02*
G01*
X100054264Y-109102882D01*
X100068543Y-109106459D01*
X100082403Y-109111418D01*
X100095710Y-109117712D01*
X100108336Y-109125280D01*
X100120159Y-109134048D01*
X100131066Y-109143934D01*
X100140952Y-109154841D01*
X100149720Y-109166664D01*
X100157288Y-109179290D01*
X100163582Y-109192597D01*
X100168541Y-109206457D01*
X100172118Y-109220736D01*
X100174278Y-109235297D01*
X100175000Y-109250000D01*
X100175000Y-110650000D01*
X100174278Y-110664703D01*
X100172118Y-110679264D01*
X100168541Y-110693543D01*
X100163582Y-110707403D01*
X100157288Y-110720710D01*
X100149720Y-110733336D01*
X100140952Y-110745159D01*
X100131066Y-110756066D01*
X100120159Y-110765952D01*
X100108336Y-110774720D01*
X100095710Y-110782288D01*
X100082403Y-110788582D01*
X100068543Y-110793541D01*
X100054264Y-110797118D01*
X100039703Y-110799278D01*
X100025000Y-110800000D01*
X99725000Y-110800000D01*
X99710297Y-110799278D01*
X99695736Y-110797118D01*
X99681457Y-110793541D01*
X99667597Y-110788582D01*
X99654290Y-110782288D01*
X99641664Y-110774720D01*
X99629841Y-110765952D01*
X99618934Y-110756066D01*
X99609048Y-110745159D01*
X99600280Y-110733336D01*
X99592712Y-110720710D01*
X99586418Y-110707403D01*
X99581459Y-110693543D01*
X99577882Y-110679264D01*
X99575722Y-110664703D01*
X99575000Y-110650000D01*
X99575000Y-109250000D01*
X99575722Y-109235297D01*
X99577882Y-109220736D01*
X99581459Y-109206457D01*
X99586418Y-109192597D01*
X99592712Y-109179290D01*
X99600280Y-109166664D01*
X99609048Y-109154841D01*
X99618934Y-109143934D01*
X99629841Y-109134048D01*
X99641664Y-109125280D01*
X99654290Y-109117712D01*
X99667597Y-109111418D01*
X99681457Y-109106459D01*
X99695736Y-109102882D01*
X99710297Y-109100722D01*
X99725000Y-109100000D01*
X100025000Y-109100000D01*
X100039703Y-109100722D01*
X100039703Y-109100722D01*
G37*
D12*
X99875000Y-109950000D03*
D10*
G36*
X98789703Y-109100722D02*
G01*
X98804264Y-109102882D01*
X98818543Y-109106459D01*
X98832403Y-109111418D01*
X98845710Y-109117712D01*
X98858336Y-109125280D01*
X98870159Y-109134048D01*
X98881066Y-109143934D01*
X98890952Y-109154841D01*
X98899720Y-109166664D01*
X98907288Y-109179290D01*
X98913582Y-109192597D01*
X98918541Y-109206457D01*
X98922118Y-109220736D01*
X98924278Y-109235297D01*
X98925000Y-109250000D01*
X98925000Y-110650000D01*
X98924278Y-110664703D01*
X98922118Y-110679264D01*
X98918541Y-110693543D01*
X98913582Y-110707403D01*
X98907288Y-110720710D01*
X98899720Y-110733336D01*
X98890952Y-110745159D01*
X98881066Y-110756066D01*
X98870159Y-110765952D01*
X98858336Y-110774720D01*
X98845710Y-110782288D01*
X98832403Y-110788582D01*
X98818543Y-110793541D01*
X98804264Y-110797118D01*
X98789703Y-110799278D01*
X98775000Y-110800000D01*
X98475000Y-110800000D01*
X98460297Y-110799278D01*
X98445736Y-110797118D01*
X98431457Y-110793541D01*
X98417597Y-110788582D01*
X98404290Y-110782288D01*
X98391664Y-110774720D01*
X98379841Y-110765952D01*
X98368934Y-110756066D01*
X98359048Y-110745159D01*
X98350280Y-110733336D01*
X98342712Y-110720710D01*
X98336418Y-110707403D01*
X98331459Y-110693543D01*
X98327882Y-110679264D01*
X98325722Y-110664703D01*
X98325000Y-110650000D01*
X98325000Y-109250000D01*
X98325722Y-109235297D01*
X98327882Y-109220736D01*
X98331459Y-109206457D01*
X98336418Y-109192597D01*
X98342712Y-109179290D01*
X98350280Y-109166664D01*
X98359048Y-109154841D01*
X98368934Y-109143934D01*
X98379841Y-109134048D01*
X98391664Y-109125280D01*
X98404290Y-109117712D01*
X98417597Y-109111418D01*
X98431457Y-109106459D01*
X98445736Y-109102882D01*
X98460297Y-109100722D01*
X98475000Y-109100000D01*
X98775000Y-109100000D01*
X98789703Y-109100722D01*
X98789703Y-109100722D01*
G37*
D12*
X98625000Y-109950000D03*
D10*
G36*
X97539703Y-109100722D02*
G01*
X97554264Y-109102882D01*
X97568543Y-109106459D01*
X97582403Y-109111418D01*
X97595710Y-109117712D01*
X97608336Y-109125280D01*
X97620159Y-109134048D01*
X97631066Y-109143934D01*
X97640952Y-109154841D01*
X97649720Y-109166664D01*
X97657288Y-109179290D01*
X97663582Y-109192597D01*
X97668541Y-109206457D01*
X97672118Y-109220736D01*
X97674278Y-109235297D01*
X97675000Y-109250000D01*
X97675000Y-110650000D01*
X97674278Y-110664703D01*
X97672118Y-110679264D01*
X97668541Y-110693543D01*
X97663582Y-110707403D01*
X97657288Y-110720710D01*
X97649720Y-110733336D01*
X97640952Y-110745159D01*
X97631066Y-110756066D01*
X97620159Y-110765952D01*
X97608336Y-110774720D01*
X97595710Y-110782288D01*
X97582403Y-110788582D01*
X97568543Y-110793541D01*
X97554264Y-110797118D01*
X97539703Y-110799278D01*
X97525000Y-110800000D01*
X97225000Y-110800000D01*
X97210297Y-110799278D01*
X97195736Y-110797118D01*
X97181457Y-110793541D01*
X97167597Y-110788582D01*
X97154290Y-110782288D01*
X97141664Y-110774720D01*
X97129841Y-110765952D01*
X97118934Y-110756066D01*
X97109048Y-110745159D01*
X97100280Y-110733336D01*
X97092712Y-110720710D01*
X97086418Y-110707403D01*
X97081459Y-110693543D01*
X97077882Y-110679264D01*
X97075722Y-110664703D01*
X97075000Y-110650000D01*
X97075000Y-109250000D01*
X97075722Y-109235297D01*
X97077882Y-109220736D01*
X97081459Y-109206457D01*
X97086418Y-109192597D01*
X97092712Y-109179290D01*
X97100280Y-109166664D01*
X97109048Y-109154841D01*
X97118934Y-109143934D01*
X97129841Y-109134048D01*
X97141664Y-109125280D01*
X97154290Y-109117712D01*
X97167597Y-109111418D01*
X97181457Y-109106459D01*
X97195736Y-109102882D01*
X97210297Y-109100722D01*
X97225000Y-109100000D01*
X97525000Y-109100000D01*
X97539703Y-109100722D01*
X97539703Y-109100722D01*
G37*
D12*
X97375000Y-109950000D03*
D10*
G36*
X96289703Y-109100722D02*
G01*
X96304264Y-109102882D01*
X96318543Y-109106459D01*
X96332403Y-109111418D01*
X96345710Y-109117712D01*
X96358336Y-109125280D01*
X96370159Y-109134048D01*
X96381066Y-109143934D01*
X96390952Y-109154841D01*
X96399720Y-109166664D01*
X96407288Y-109179290D01*
X96413582Y-109192597D01*
X96418541Y-109206457D01*
X96422118Y-109220736D01*
X96424278Y-109235297D01*
X96425000Y-109250000D01*
X96425000Y-110650000D01*
X96424278Y-110664703D01*
X96422118Y-110679264D01*
X96418541Y-110693543D01*
X96413582Y-110707403D01*
X96407288Y-110720710D01*
X96399720Y-110733336D01*
X96390952Y-110745159D01*
X96381066Y-110756066D01*
X96370159Y-110765952D01*
X96358336Y-110774720D01*
X96345710Y-110782288D01*
X96332403Y-110788582D01*
X96318543Y-110793541D01*
X96304264Y-110797118D01*
X96289703Y-110799278D01*
X96275000Y-110800000D01*
X95975000Y-110800000D01*
X95960297Y-110799278D01*
X95945736Y-110797118D01*
X95931457Y-110793541D01*
X95917597Y-110788582D01*
X95904290Y-110782288D01*
X95891664Y-110774720D01*
X95879841Y-110765952D01*
X95868934Y-110756066D01*
X95859048Y-110745159D01*
X95850280Y-110733336D01*
X95842712Y-110720710D01*
X95836418Y-110707403D01*
X95831459Y-110693543D01*
X95827882Y-110679264D01*
X95825722Y-110664703D01*
X95825000Y-110650000D01*
X95825000Y-109250000D01*
X95825722Y-109235297D01*
X95827882Y-109220736D01*
X95831459Y-109206457D01*
X95836418Y-109192597D01*
X95842712Y-109179290D01*
X95850280Y-109166664D01*
X95859048Y-109154841D01*
X95868934Y-109143934D01*
X95879841Y-109134048D01*
X95891664Y-109125280D01*
X95904290Y-109117712D01*
X95917597Y-109111418D01*
X95931457Y-109106459D01*
X95945736Y-109102882D01*
X95960297Y-109100722D01*
X95975000Y-109100000D01*
X96275000Y-109100000D01*
X96289703Y-109100722D01*
X96289703Y-109100722D01*
G37*
D12*
X96125000Y-109950000D03*
D10*
G36*
X95039703Y-109100722D02*
G01*
X95054264Y-109102882D01*
X95068543Y-109106459D01*
X95082403Y-109111418D01*
X95095710Y-109117712D01*
X95108336Y-109125280D01*
X95120159Y-109134048D01*
X95131066Y-109143934D01*
X95140952Y-109154841D01*
X95149720Y-109166664D01*
X95157288Y-109179290D01*
X95163582Y-109192597D01*
X95168541Y-109206457D01*
X95172118Y-109220736D01*
X95174278Y-109235297D01*
X95175000Y-109250000D01*
X95175000Y-110650000D01*
X95174278Y-110664703D01*
X95172118Y-110679264D01*
X95168541Y-110693543D01*
X95163582Y-110707403D01*
X95157288Y-110720710D01*
X95149720Y-110733336D01*
X95140952Y-110745159D01*
X95131066Y-110756066D01*
X95120159Y-110765952D01*
X95108336Y-110774720D01*
X95095710Y-110782288D01*
X95082403Y-110788582D01*
X95068543Y-110793541D01*
X95054264Y-110797118D01*
X95039703Y-110799278D01*
X95025000Y-110800000D01*
X94725000Y-110800000D01*
X94710297Y-110799278D01*
X94695736Y-110797118D01*
X94681457Y-110793541D01*
X94667597Y-110788582D01*
X94654290Y-110782288D01*
X94641664Y-110774720D01*
X94629841Y-110765952D01*
X94618934Y-110756066D01*
X94609048Y-110745159D01*
X94600280Y-110733336D01*
X94592712Y-110720710D01*
X94586418Y-110707403D01*
X94581459Y-110693543D01*
X94577882Y-110679264D01*
X94575722Y-110664703D01*
X94575000Y-110650000D01*
X94575000Y-109250000D01*
X94575722Y-109235297D01*
X94577882Y-109220736D01*
X94581459Y-109206457D01*
X94586418Y-109192597D01*
X94592712Y-109179290D01*
X94600280Y-109166664D01*
X94609048Y-109154841D01*
X94618934Y-109143934D01*
X94629841Y-109134048D01*
X94641664Y-109125280D01*
X94654290Y-109117712D01*
X94667597Y-109111418D01*
X94681457Y-109106459D01*
X94695736Y-109102882D01*
X94710297Y-109100722D01*
X94725000Y-109100000D01*
X95025000Y-109100000D01*
X95039703Y-109100722D01*
X95039703Y-109100722D01*
G37*
D12*
X94875000Y-109950000D03*
D10*
G36*
X99035779Y-113426144D02*
G01*
X99058834Y-113429563D01*
X99081443Y-113435227D01*
X99103387Y-113443079D01*
X99124457Y-113453044D01*
X99144448Y-113465026D01*
X99163168Y-113478910D01*
X99180438Y-113494562D01*
X99196090Y-113511832D01*
X99209974Y-113530552D01*
X99221956Y-113550543D01*
X99231921Y-113571613D01*
X99239773Y-113593557D01*
X99245437Y-113616166D01*
X99248856Y-113639221D01*
X99250000Y-113662500D01*
X99250000Y-114137500D01*
X99248856Y-114160779D01*
X99245437Y-114183834D01*
X99239773Y-114206443D01*
X99231921Y-114228387D01*
X99221956Y-114249457D01*
X99209974Y-114269448D01*
X99196090Y-114288168D01*
X99180438Y-114305438D01*
X99163168Y-114321090D01*
X99144448Y-114334974D01*
X99124457Y-114346956D01*
X99103387Y-114356921D01*
X99081443Y-114364773D01*
X99058834Y-114370437D01*
X99035779Y-114373856D01*
X99012500Y-114375000D01*
X98437500Y-114375000D01*
X98414221Y-114373856D01*
X98391166Y-114370437D01*
X98368557Y-114364773D01*
X98346613Y-114356921D01*
X98325543Y-114346956D01*
X98305552Y-114334974D01*
X98286832Y-114321090D01*
X98269562Y-114305438D01*
X98253910Y-114288168D01*
X98240026Y-114269448D01*
X98228044Y-114249457D01*
X98218079Y-114228387D01*
X98210227Y-114206443D01*
X98204563Y-114183834D01*
X98201144Y-114160779D01*
X98200000Y-114137500D01*
X98200000Y-113662500D01*
X98201144Y-113639221D01*
X98204563Y-113616166D01*
X98210227Y-113593557D01*
X98218079Y-113571613D01*
X98228044Y-113550543D01*
X98240026Y-113530552D01*
X98253910Y-113511832D01*
X98269562Y-113494562D01*
X98286832Y-113478910D01*
X98305552Y-113465026D01*
X98325543Y-113453044D01*
X98346613Y-113443079D01*
X98368557Y-113435227D01*
X98391166Y-113429563D01*
X98414221Y-113426144D01*
X98437500Y-113425000D01*
X99012500Y-113425000D01*
X99035779Y-113426144D01*
X99035779Y-113426144D01*
G37*
D13*
X98725000Y-113900000D03*
D10*
G36*
X97285779Y-113426144D02*
G01*
X97308834Y-113429563D01*
X97331443Y-113435227D01*
X97353387Y-113443079D01*
X97374457Y-113453044D01*
X97394448Y-113465026D01*
X97413168Y-113478910D01*
X97430438Y-113494562D01*
X97446090Y-113511832D01*
X97459974Y-113530552D01*
X97471956Y-113550543D01*
X97481921Y-113571613D01*
X97489773Y-113593557D01*
X97495437Y-113616166D01*
X97498856Y-113639221D01*
X97500000Y-113662500D01*
X97500000Y-114137500D01*
X97498856Y-114160779D01*
X97495437Y-114183834D01*
X97489773Y-114206443D01*
X97481921Y-114228387D01*
X97471956Y-114249457D01*
X97459974Y-114269448D01*
X97446090Y-114288168D01*
X97430438Y-114305438D01*
X97413168Y-114321090D01*
X97394448Y-114334974D01*
X97374457Y-114346956D01*
X97353387Y-114356921D01*
X97331443Y-114364773D01*
X97308834Y-114370437D01*
X97285779Y-114373856D01*
X97262500Y-114375000D01*
X96687500Y-114375000D01*
X96664221Y-114373856D01*
X96641166Y-114370437D01*
X96618557Y-114364773D01*
X96596613Y-114356921D01*
X96575543Y-114346956D01*
X96555552Y-114334974D01*
X96536832Y-114321090D01*
X96519562Y-114305438D01*
X96503910Y-114288168D01*
X96490026Y-114269448D01*
X96478044Y-114249457D01*
X96468079Y-114228387D01*
X96460227Y-114206443D01*
X96454563Y-114183834D01*
X96451144Y-114160779D01*
X96450000Y-114137500D01*
X96450000Y-113662500D01*
X96451144Y-113639221D01*
X96454563Y-113616166D01*
X96460227Y-113593557D01*
X96468079Y-113571613D01*
X96478044Y-113550543D01*
X96490026Y-113530552D01*
X96503910Y-113511832D01*
X96519562Y-113494562D01*
X96536832Y-113478910D01*
X96555552Y-113465026D01*
X96575543Y-113453044D01*
X96596613Y-113443079D01*
X96618557Y-113435227D01*
X96641166Y-113429563D01*
X96664221Y-113426144D01*
X96687500Y-113425000D01*
X97262500Y-113425000D01*
X97285779Y-113426144D01*
X97285779Y-113426144D01*
G37*
D13*
X96975000Y-113900000D03*
M02*
