G04 #@! TF.GenerationSoftware,KiCad,Pcbnew,(5.1.4)-1*
G04 #@! TF.CreationDate,2021-04-01T21:41:31+08:00*
G04 #@! TF.ProjectId,ma730,6d613733-302e-46b6-9963-61645f706362,rev?*
G04 #@! TF.SameCoordinates,Original*
G04 #@! TF.FileFunction,Copper,L2,Bot*
G04 #@! TF.FilePolarity,Positive*
%FSLAX46Y46*%
G04 Gerber Fmt 4.6, Leading zero omitted, Abs format (unit mm)*
G04 Created by KiCad (PCBNEW (5.1.4)-1) date 2021-04-01 21:41:31*
%MOMM*%
%LPD*%
G04 APERTURE LIST*
%ADD10C,1.600000*%
%ADD11R,1.600000X1.600000*%
%ADD12C,0.100000*%
%ADD13C,0.250000*%
%ADD14C,1.450000*%
%ADD15C,2.500000*%
%ADD16C,0.800000*%
%ADD17C,0.250000*%
G04 APERTURE END LIST*
D10*
X99500000Y-100330000D03*
D11*
X97000000Y-100330000D03*
D12*
G36*
X97318626Y-107975301D02*
G01*
X97324693Y-107976201D01*
X97330643Y-107977691D01*
X97336418Y-107979758D01*
X97341962Y-107982380D01*
X97347223Y-107985533D01*
X97352150Y-107989187D01*
X97356694Y-107993306D01*
X97360813Y-107997850D01*
X97364467Y-108002777D01*
X97367620Y-108008038D01*
X97370242Y-108013582D01*
X97372309Y-108019357D01*
X97373799Y-108025307D01*
X97374699Y-108031374D01*
X97375000Y-108037500D01*
X97375000Y-109162500D01*
X97374699Y-109168626D01*
X97373799Y-109174693D01*
X97372309Y-109180643D01*
X97370242Y-109186418D01*
X97367620Y-109191962D01*
X97364467Y-109197223D01*
X97360813Y-109202150D01*
X97356694Y-109206694D01*
X97352150Y-109210813D01*
X97347223Y-109214467D01*
X97341962Y-109217620D01*
X97336418Y-109220242D01*
X97330643Y-109222309D01*
X97324693Y-109223799D01*
X97318626Y-109224699D01*
X97312500Y-109225000D01*
X97187500Y-109225000D01*
X97181374Y-109224699D01*
X97175307Y-109223799D01*
X97169357Y-109222309D01*
X97163582Y-109220242D01*
X97158038Y-109217620D01*
X97152777Y-109214467D01*
X97147850Y-109210813D01*
X97143306Y-109206694D01*
X97139187Y-109202150D01*
X97135533Y-109197223D01*
X97132380Y-109191962D01*
X97129758Y-109186418D01*
X97127691Y-109180643D01*
X97126201Y-109174693D01*
X97125301Y-109168626D01*
X97125000Y-109162500D01*
X97125000Y-108037500D01*
X97125301Y-108031374D01*
X97126201Y-108025307D01*
X97127691Y-108019357D01*
X97129758Y-108013582D01*
X97132380Y-108008038D01*
X97135533Y-108002777D01*
X97139187Y-107997850D01*
X97143306Y-107993306D01*
X97147850Y-107989187D01*
X97152777Y-107985533D01*
X97158038Y-107982380D01*
X97163582Y-107979758D01*
X97169357Y-107977691D01*
X97175307Y-107976201D01*
X97181374Y-107975301D01*
X97187500Y-107975000D01*
X97312500Y-107975000D01*
X97318626Y-107975301D01*
X97318626Y-107975301D01*
G37*
D13*
X97250000Y-108600000D03*
D12*
G36*
X97818626Y-107975301D02*
G01*
X97824693Y-107976201D01*
X97830643Y-107977691D01*
X97836418Y-107979758D01*
X97841962Y-107982380D01*
X97847223Y-107985533D01*
X97852150Y-107989187D01*
X97856694Y-107993306D01*
X97860813Y-107997850D01*
X97864467Y-108002777D01*
X97867620Y-108008038D01*
X97870242Y-108013582D01*
X97872309Y-108019357D01*
X97873799Y-108025307D01*
X97874699Y-108031374D01*
X97875000Y-108037500D01*
X97875000Y-109162500D01*
X97874699Y-109168626D01*
X97873799Y-109174693D01*
X97872309Y-109180643D01*
X97870242Y-109186418D01*
X97867620Y-109191962D01*
X97864467Y-109197223D01*
X97860813Y-109202150D01*
X97856694Y-109206694D01*
X97852150Y-109210813D01*
X97847223Y-109214467D01*
X97841962Y-109217620D01*
X97836418Y-109220242D01*
X97830643Y-109222309D01*
X97824693Y-109223799D01*
X97818626Y-109224699D01*
X97812500Y-109225000D01*
X97687500Y-109225000D01*
X97681374Y-109224699D01*
X97675307Y-109223799D01*
X97669357Y-109222309D01*
X97663582Y-109220242D01*
X97658038Y-109217620D01*
X97652777Y-109214467D01*
X97647850Y-109210813D01*
X97643306Y-109206694D01*
X97639187Y-109202150D01*
X97635533Y-109197223D01*
X97632380Y-109191962D01*
X97629758Y-109186418D01*
X97627691Y-109180643D01*
X97626201Y-109174693D01*
X97625301Y-109168626D01*
X97625000Y-109162500D01*
X97625000Y-108037500D01*
X97625301Y-108031374D01*
X97626201Y-108025307D01*
X97627691Y-108019357D01*
X97629758Y-108013582D01*
X97632380Y-108008038D01*
X97635533Y-108002777D01*
X97639187Y-107997850D01*
X97643306Y-107993306D01*
X97647850Y-107989187D01*
X97652777Y-107985533D01*
X97658038Y-107982380D01*
X97663582Y-107979758D01*
X97669357Y-107977691D01*
X97675307Y-107976201D01*
X97681374Y-107975301D01*
X97687500Y-107975000D01*
X97812500Y-107975000D01*
X97818626Y-107975301D01*
X97818626Y-107975301D01*
G37*
D13*
X97750000Y-108600000D03*
D12*
G36*
X98318626Y-107975301D02*
G01*
X98324693Y-107976201D01*
X98330643Y-107977691D01*
X98336418Y-107979758D01*
X98341962Y-107982380D01*
X98347223Y-107985533D01*
X98352150Y-107989187D01*
X98356694Y-107993306D01*
X98360813Y-107997850D01*
X98364467Y-108002777D01*
X98367620Y-108008038D01*
X98370242Y-108013582D01*
X98372309Y-108019357D01*
X98373799Y-108025307D01*
X98374699Y-108031374D01*
X98375000Y-108037500D01*
X98375000Y-109162500D01*
X98374699Y-109168626D01*
X98373799Y-109174693D01*
X98372309Y-109180643D01*
X98370242Y-109186418D01*
X98367620Y-109191962D01*
X98364467Y-109197223D01*
X98360813Y-109202150D01*
X98356694Y-109206694D01*
X98352150Y-109210813D01*
X98347223Y-109214467D01*
X98341962Y-109217620D01*
X98336418Y-109220242D01*
X98330643Y-109222309D01*
X98324693Y-109223799D01*
X98318626Y-109224699D01*
X98312500Y-109225000D01*
X98187500Y-109225000D01*
X98181374Y-109224699D01*
X98175307Y-109223799D01*
X98169357Y-109222309D01*
X98163582Y-109220242D01*
X98158038Y-109217620D01*
X98152777Y-109214467D01*
X98147850Y-109210813D01*
X98143306Y-109206694D01*
X98139187Y-109202150D01*
X98135533Y-109197223D01*
X98132380Y-109191962D01*
X98129758Y-109186418D01*
X98127691Y-109180643D01*
X98126201Y-109174693D01*
X98125301Y-109168626D01*
X98125000Y-109162500D01*
X98125000Y-108037500D01*
X98125301Y-108031374D01*
X98126201Y-108025307D01*
X98127691Y-108019357D01*
X98129758Y-108013582D01*
X98132380Y-108008038D01*
X98135533Y-108002777D01*
X98139187Y-107997850D01*
X98143306Y-107993306D01*
X98147850Y-107989187D01*
X98152777Y-107985533D01*
X98158038Y-107982380D01*
X98163582Y-107979758D01*
X98169357Y-107977691D01*
X98175307Y-107976201D01*
X98181374Y-107975301D01*
X98187500Y-107975000D01*
X98312500Y-107975000D01*
X98318626Y-107975301D01*
X98318626Y-107975301D01*
G37*
D13*
X98250000Y-108600000D03*
D12*
G36*
X98818626Y-107975301D02*
G01*
X98824693Y-107976201D01*
X98830643Y-107977691D01*
X98836418Y-107979758D01*
X98841962Y-107982380D01*
X98847223Y-107985533D01*
X98852150Y-107989187D01*
X98856694Y-107993306D01*
X98860813Y-107997850D01*
X98864467Y-108002777D01*
X98867620Y-108008038D01*
X98870242Y-108013582D01*
X98872309Y-108019357D01*
X98873799Y-108025307D01*
X98874699Y-108031374D01*
X98875000Y-108037500D01*
X98875000Y-109162500D01*
X98874699Y-109168626D01*
X98873799Y-109174693D01*
X98872309Y-109180643D01*
X98870242Y-109186418D01*
X98867620Y-109191962D01*
X98864467Y-109197223D01*
X98860813Y-109202150D01*
X98856694Y-109206694D01*
X98852150Y-109210813D01*
X98847223Y-109214467D01*
X98841962Y-109217620D01*
X98836418Y-109220242D01*
X98830643Y-109222309D01*
X98824693Y-109223799D01*
X98818626Y-109224699D01*
X98812500Y-109225000D01*
X98687500Y-109225000D01*
X98681374Y-109224699D01*
X98675307Y-109223799D01*
X98669357Y-109222309D01*
X98663582Y-109220242D01*
X98658038Y-109217620D01*
X98652777Y-109214467D01*
X98647850Y-109210813D01*
X98643306Y-109206694D01*
X98639187Y-109202150D01*
X98635533Y-109197223D01*
X98632380Y-109191962D01*
X98629758Y-109186418D01*
X98627691Y-109180643D01*
X98626201Y-109174693D01*
X98625301Y-109168626D01*
X98625000Y-109162500D01*
X98625000Y-108037500D01*
X98625301Y-108031374D01*
X98626201Y-108025307D01*
X98627691Y-108019357D01*
X98629758Y-108013582D01*
X98632380Y-108008038D01*
X98635533Y-108002777D01*
X98639187Y-107997850D01*
X98643306Y-107993306D01*
X98647850Y-107989187D01*
X98652777Y-107985533D01*
X98658038Y-107982380D01*
X98663582Y-107979758D01*
X98669357Y-107977691D01*
X98675307Y-107976201D01*
X98681374Y-107975301D01*
X98687500Y-107975000D01*
X98812500Y-107975000D01*
X98818626Y-107975301D01*
X98818626Y-107975301D01*
G37*
D13*
X98750000Y-108600000D03*
D12*
G36*
X100168626Y-107625301D02*
G01*
X100174693Y-107626201D01*
X100180643Y-107627691D01*
X100186418Y-107629758D01*
X100191962Y-107632380D01*
X100197223Y-107635533D01*
X100202150Y-107639187D01*
X100206694Y-107643306D01*
X100210813Y-107647850D01*
X100214467Y-107652777D01*
X100217620Y-107658038D01*
X100220242Y-107663582D01*
X100222309Y-107669357D01*
X100223799Y-107675307D01*
X100224699Y-107681374D01*
X100225000Y-107687500D01*
X100225000Y-107812500D01*
X100224699Y-107818626D01*
X100223799Y-107824693D01*
X100222309Y-107830643D01*
X100220242Y-107836418D01*
X100217620Y-107841962D01*
X100214467Y-107847223D01*
X100210813Y-107852150D01*
X100206694Y-107856694D01*
X100202150Y-107860813D01*
X100197223Y-107864467D01*
X100191962Y-107867620D01*
X100186418Y-107870242D01*
X100180643Y-107872309D01*
X100174693Y-107873799D01*
X100168626Y-107874699D01*
X100162500Y-107875000D01*
X99037500Y-107875000D01*
X99031374Y-107874699D01*
X99025307Y-107873799D01*
X99019357Y-107872309D01*
X99013582Y-107870242D01*
X99008038Y-107867620D01*
X99002777Y-107864467D01*
X98997850Y-107860813D01*
X98993306Y-107856694D01*
X98989187Y-107852150D01*
X98985533Y-107847223D01*
X98982380Y-107841962D01*
X98979758Y-107836418D01*
X98977691Y-107830643D01*
X98976201Y-107824693D01*
X98975301Y-107818626D01*
X98975000Y-107812500D01*
X98975000Y-107687500D01*
X98975301Y-107681374D01*
X98976201Y-107675307D01*
X98977691Y-107669357D01*
X98979758Y-107663582D01*
X98982380Y-107658038D01*
X98985533Y-107652777D01*
X98989187Y-107647850D01*
X98993306Y-107643306D01*
X98997850Y-107639187D01*
X99002777Y-107635533D01*
X99008038Y-107632380D01*
X99013582Y-107629758D01*
X99019357Y-107627691D01*
X99025307Y-107626201D01*
X99031374Y-107625301D01*
X99037500Y-107625000D01*
X100162500Y-107625000D01*
X100168626Y-107625301D01*
X100168626Y-107625301D01*
G37*
D13*
X99600000Y-107750000D03*
D12*
G36*
X100168626Y-107125301D02*
G01*
X100174693Y-107126201D01*
X100180643Y-107127691D01*
X100186418Y-107129758D01*
X100191962Y-107132380D01*
X100197223Y-107135533D01*
X100202150Y-107139187D01*
X100206694Y-107143306D01*
X100210813Y-107147850D01*
X100214467Y-107152777D01*
X100217620Y-107158038D01*
X100220242Y-107163582D01*
X100222309Y-107169357D01*
X100223799Y-107175307D01*
X100224699Y-107181374D01*
X100225000Y-107187500D01*
X100225000Y-107312500D01*
X100224699Y-107318626D01*
X100223799Y-107324693D01*
X100222309Y-107330643D01*
X100220242Y-107336418D01*
X100217620Y-107341962D01*
X100214467Y-107347223D01*
X100210813Y-107352150D01*
X100206694Y-107356694D01*
X100202150Y-107360813D01*
X100197223Y-107364467D01*
X100191962Y-107367620D01*
X100186418Y-107370242D01*
X100180643Y-107372309D01*
X100174693Y-107373799D01*
X100168626Y-107374699D01*
X100162500Y-107375000D01*
X99037500Y-107375000D01*
X99031374Y-107374699D01*
X99025307Y-107373799D01*
X99019357Y-107372309D01*
X99013582Y-107370242D01*
X99008038Y-107367620D01*
X99002777Y-107364467D01*
X98997850Y-107360813D01*
X98993306Y-107356694D01*
X98989187Y-107352150D01*
X98985533Y-107347223D01*
X98982380Y-107341962D01*
X98979758Y-107336418D01*
X98977691Y-107330643D01*
X98976201Y-107324693D01*
X98975301Y-107318626D01*
X98975000Y-107312500D01*
X98975000Y-107187500D01*
X98975301Y-107181374D01*
X98976201Y-107175307D01*
X98977691Y-107169357D01*
X98979758Y-107163582D01*
X98982380Y-107158038D01*
X98985533Y-107152777D01*
X98989187Y-107147850D01*
X98993306Y-107143306D01*
X98997850Y-107139187D01*
X99002777Y-107135533D01*
X99008038Y-107132380D01*
X99013582Y-107129758D01*
X99019357Y-107127691D01*
X99025307Y-107126201D01*
X99031374Y-107125301D01*
X99037500Y-107125000D01*
X100162500Y-107125000D01*
X100168626Y-107125301D01*
X100168626Y-107125301D01*
G37*
D13*
X99600000Y-107250000D03*
D12*
G36*
X100168626Y-106625301D02*
G01*
X100174693Y-106626201D01*
X100180643Y-106627691D01*
X100186418Y-106629758D01*
X100191962Y-106632380D01*
X100197223Y-106635533D01*
X100202150Y-106639187D01*
X100206694Y-106643306D01*
X100210813Y-106647850D01*
X100214467Y-106652777D01*
X100217620Y-106658038D01*
X100220242Y-106663582D01*
X100222309Y-106669357D01*
X100223799Y-106675307D01*
X100224699Y-106681374D01*
X100225000Y-106687500D01*
X100225000Y-106812500D01*
X100224699Y-106818626D01*
X100223799Y-106824693D01*
X100222309Y-106830643D01*
X100220242Y-106836418D01*
X100217620Y-106841962D01*
X100214467Y-106847223D01*
X100210813Y-106852150D01*
X100206694Y-106856694D01*
X100202150Y-106860813D01*
X100197223Y-106864467D01*
X100191962Y-106867620D01*
X100186418Y-106870242D01*
X100180643Y-106872309D01*
X100174693Y-106873799D01*
X100168626Y-106874699D01*
X100162500Y-106875000D01*
X99037500Y-106875000D01*
X99031374Y-106874699D01*
X99025307Y-106873799D01*
X99019357Y-106872309D01*
X99013582Y-106870242D01*
X99008038Y-106867620D01*
X99002777Y-106864467D01*
X98997850Y-106860813D01*
X98993306Y-106856694D01*
X98989187Y-106852150D01*
X98985533Y-106847223D01*
X98982380Y-106841962D01*
X98979758Y-106836418D01*
X98977691Y-106830643D01*
X98976201Y-106824693D01*
X98975301Y-106818626D01*
X98975000Y-106812500D01*
X98975000Y-106687500D01*
X98975301Y-106681374D01*
X98976201Y-106675307D01*
X98977691Y-106669357D01*
X98979758Y-106663582D01*
X98982380Y-106658038D01*
X98985533Y-106652777D01*
X98989187Y-106647850D01*
X98993306Y-106643306D01*
X98997850Y-106639187D01*
X99002777Y-106635533D01*
X99008038Y-106632380D01*
X99013582Y-106629758D01*
X99019357Y-106627691D01*
X99025307Y-106626201D01*
X99031374Y-106625301D01*
X99037500Y-106625000D01*
X100162500Y-106625000D01*
X100168626Y-106625301D01*
X100168626Y-106625301D01*
G37*
D13*
X99600000Y-106750000D03*
D12*
G36*
X100168626Y-106125301D02*
G01*
X100174693Y-106126201D01*
X100180643Y-106127691D01*
X100186418Y-106129758D01*
X100191962Y-106132380D01*
X100197223Y-106135533D01*
X100202150Y-106139187D01*
X100206694Y-106143306D01*
X100210813Y-106147850D01*
X100214467Y-106152777D01*
X100217620Y-106158038D01*
X100220242Y-106163582D01*
X100222309Y-106169357D01*
X100223799Y-106175307D01*
X100224699Y-106181374D01*
X100225000Y-106187500D01*
X100225000Y-106312500D01*
X100224699Y-106318626D01*
X100223799Y-106324693D01*
X100222309Y-106330643D01*
X100220242Y-106336418D01*
X100217620Y-106341962D01*
X100214467Y-106347223D01*
X100210813Y-106352150D01*
X100206694Y-106356694D01*
X100202150Y-106360813D01*
X100197223Y-106364467D01*
X100191962Y-106367620D01*
X100186418Y-106370242D01*
X100180643Y-106372309D01*
X100174693Y-106373799D01*
X100168626Y-106374699D01*
X100162500Y-106375000D01*
X99037500Y-106375000D01*
X99031374Y-106374699D01*
X99025307Y-106373799D01*
X99019357Y-106372309D01*
X99013582Y-106370242D01*
X99008038Y-106367620D01*
X99002777Y-106364467D01*
X98997850Y-106360813D01*
X98993306Y-106356694D01*
X98989187Y-106352150D01*
X98985533Y-106347223D01*
X98982380Y-106341962D01*
X98979758Y-106336418D01*
X98977691Y-106330643D01*
X98976201Y-106324693D01*
X98975301Y-106318626D01*
X98975000Y-106312500D01*
X98975000Y-106187500D01*
X98975301Y-106181374D01*
X98976201Y-106175307D01*
X98977691Y-106169357D01*
X98979758Y-106163582D01*
X98982380Y-106158038D01*
X98985533Y-106152777D01*
X98989187Y-106147850D01*
X98993306Y-106143306D01*
X98997850Y-106139187D01*
X99002777Y-106135533D01*
X99008038Y-106132380D01*
X99013582Y-106129758D01*
X99019357Y-106127691D01*
X99025307Y-106126201D01*
X99031374Y-106125301D01*
X99037500Y-106125000D01*
X100162500Y-106125000D01*
X100168626Y-106125301D01*
X100168626Y-106125301D01*
G37*
D13*
X99600000Y-106250000D03*
D12*
G36*
X98818626Y-104775301D02*
G01*
X98824693Y-104776201D01*
X98830643Y-104777691D01*
X98836418Y-104779758D01*
X98841962Y-104782380D01*
X98847223Y-104785533D01*
X98852150Y-104789187D01*
X98856694Y-104793306D01*
X98860813Y-104797850D01*
X98864467Y-104802777D01*
X98867620Y-104808038D01*
X98870242Y-104813582D01*
X98872309Y-104819357D01*
X98873799Y-104825307D01*
X98874699Y-104831374D01*
X98875000Y-104837500D01*
X98875000Y-105962500D01*
X98874699Y-105968626D01*
X98873799Y-105974693D01*
X98872309Y-105980643D01*
X98870242Y-105986418D01*
X98867620Y-105991962D01*
X98864467Y-105997223D01*
X98860813Y-106002150D01*
X98856694Y-106006694D01*
X98852150Y-106010813D01*
X98847223Y-106014467D01*
X98841962Y-106017620D01*
X98836418Y-106020242D01*
X98830643Y-106022309D01*
X98824693Y-106023799D01*
X98818626Y-106024699D01*
X98812500Y-106025000D01*
X98687500Y-106025000D01*
X98681374Y-106024699D01*
X98675307Y-106023799D01*
X98669357Y-106022309D01*
X98663582Y-106020242D01*
X98658038Y-106017620D01*
X98652777Y-106014467D01*
X98647850Y-106010813D01*
X98643306Y-106006694D01*
X98639187Y-106002150D01*
X98635533Y-105997223D01*
X98632380Y-105991962D01*
X98629758Y-105986418D01*
X98627691Y-105980643D01*
X98626201Y-105974693D01*
X98625301Y-105968626D01*
X98625000Y-105962500D01*
X98625000Y-104837500D01*
X98625301Y-104831374D01*
X98626201Y-104825307D01*
X98627691Y-104819357D01*
X98629758Y-104813582D01*
X98632380Y-104808038D01*
X98635533Y-104802777D01*
X98639187Y-104797850D01*
X98643306Y-104793306D01*
X98647850Y-104789187D01*
X98652777Y-104785533D01*
X98658038Y-104782380D01*
X98663582Y-104779758D01*
X98669357Y-104777691D01*
X98675307Y-104776201D01*
X98681374Y-104775301D01*
X98687500Y-104775000D01*
X98812500Y-104775000D01*
X98818626Y-104775301D01*
X98818626Y-104775301D01*
G37*
D13*
X98750000Y-105400000D03*
D12*
G36*
X98318626Y-104775301D02*
G01*
X98324693Y-104776201D01*
X98330643Y-104777691D01*
X98336418Y-104779758D01*
X98341962Y-104782380D01*
X98347223Y-104785533D01*
X98352150Y-104789187D01*
X98356694Y-104793306D01*
X98360813Y-104797850D01*
X98364467Y-104802777D01*
X98367620Y-104808038D01*
X98370242Y-104813582D01*
X98372309Y-104819357D01*
X98373799Y-104825307D01*
X98374699Y-104831374D01*
X98375000Y-104837500D01*
X98375000Y-105962500D01*
X98374699Y-105968626D01*
X98373799Y-105974693D01*
X98372309Y-105980643D01*
X98370242Y-105986418D01*
X98367620Y-105991962D01*
X98364467Y-105997223D01*
X98360813Y-106002150D01*
X98356694Y-106006694D01*
X98352150Y-106010813D01*
X98347223Y-106014467D01*
X98341962Y-106017620D01*
X98336418Y-106020242D01*
X98330643Y-106022309D01*
X98324693Y-106023799D01*
X98318626Y-106024699D01*
X98312500Y-106025000D01*
X98187500Y-106025000D01*
X98181374Y-106024699D01*
X98175307Y-106023799D01*
X98169357Y-106022309D01*
X98163582Y-106020242D01*
X98158038Y-106017620D01*
X98152777Y-106014467D01*
X98147850Y-106010813D01*
X98143306Y-106006694D01*
X98139187Y-106002150D01*
X98135533Y-105997223D01*
X98132380Y-105991962D01*
X98129758Y-105986418D01*
X98127691Y-105980643D01*
X98126201Y-105974693D01*
X98125301Y-105968626D01*
X98125000Y-105962500D01*
X98125000Y-104837500D01*
X98125301Y-104831374D01*
X98126201Y-104825307D01*
X98127691Y-104819357D01*
X98129758Y-104813582D01*
X98132380Y-104808038D01*
X98135533Y-104802777D01*
X98139187Y-104797850D01*
X98143306Y-104793306D01*
X98147850Y-104789187D01*
X98152777Y-104785533D01*
X98158038Y-104782380D01*
X98163582Y-104779758D01*
X98169357Y-104777691D01*
X98175307Y-104776201D01*
X98181374Y-104775301D01*
X98187500Y-104775000D01*
X98312500Y-104775000D01*
X98318626Y-104775301D01*
X98318626Y-104775301D01*
G37*
D13*
X98250000Y-105400000D03*
D12*
G36*
X97818626Y-104775301D02*
G01*
X97824693Y-104776201D01*
X97830643Y-104777691D01*
X97836418Y-104779758D01*
X97841962Y-104782380D01*
X97847223Y-104785533D01*
X97852150Y-104789187D01*
X97856694Y-104793306D01*
X97860813Y-104797850D01*
X97864467Y-104802777D01*
X97867620Y-104808038D01*
X97870242Y-104813582D01*
X97872309Y-104819357D01*
X97873799Y-104825307D01*
X97874699Y-104831374D01*
X97875000Y-104837500D01*
X97875000Y-105962500D01*
X97874699Y-105968626D01*
X97873799Y-105974693D01*
X97872309Y-105980643D01*
X97870242Y-105986418D01*
X97867620Y-105991962D01*
X97864467Y-105997223D01*
X97860813Y-106002150D01*
X97856694Y-106006694D01*
X97852150Y-106010813D01*
X97847223Y-106014467D01*
X97841962Y-106017620D01*
X97836418Y-106020242D01*
X97830643Y-106022309D01*
X97824693Y-106023799D01*
X97818626Y-106024699D01*
X97812500Y-106025000D01*
X97687500Y-106025000D01*
X97681374Y-106024699D01*
X97675307Y-106023799D01*
X97669357Y-106022309D01*
X97663582Y-106020242D01*
X97658038Y-106017620D01*
X97652777Y-106014467D01*
X97647850Y-106010813D01*
X97643306Y-106006694D01*
X97639187Y-106002150D01*
X97635533Y-105997223D01*
X97632380Y-105991962D01*
X97629758Y-105986418D01*
X97627691Y-105980643D01*
X97626201Y-105974693D01*
X97625301Y-105968626D01*
X97625000Y-105962500D01*
X97625000Y-104837500D01*
X97625301Y-104831374D01*
X97626201Y-104825307D01*
X97627691Y-104819357D01*
X97629758Y-104813582D01*
X97632380Y-104808038D01*
X97635533Y-104802777D01*
X97639187Y-104797850D01*
X97643306Y-104793306D01*
X97647850Y-104789187D01*
X97652777Y-104785533D01*
X97658038Y-104782380D01*
X97663582Y-104779758D01*
X97669357Y-104777691D01*
X97675307Y-104776201D01*
X97681374Y-104775301D01*
X97687500Y-104775000D01*
X97812500Y-104775000D01*
X97818626Y-104775301D01*
X97818626Y-104775301D01*
G37*
D13*
X97750000Y-105400000D03*
D12*
G36*
X97318626Y-104775301D02*
G01*
X97324693Y-104776201D01*
X97330643Y-104777691D01*
X97336418Y-104779758D01*
X97341962Y-104782380D01*
X97347223Y-104785533D01*
X97352150Y-104789187D01*
X97356694Y-104793306D01*
X97360813Y-104797850D01*
X97364467Y-104802777D01*
X97367620Y-104808038D01*
X97370242Y-104813582D01*
X97372309Y-104819357D01*
X97373799Y-104825307D01*
X97374699Y-104831374D01*
X97375000Y-104837500D01*
X97375000Y-105962500D01*
X97374699Y-105968626D01*
X97373799Y-105974693D01*
X97372309Y-105980643D01*
X97370242Y-105986418D01*
X97367620Y-105991962D01*
X97364467Y-105997223D01*
X97360813Y-106002150D01*
X97356694Y-106006694D01*
X97352150Y-106010813D01*
X97347223Y-106014467D01*
X97341962Y-106017620D01*
X97336418Y-106020242D01*
X97330643Y-106022309D01*
X97324693Y-106023799D01*
X97318626Y-106024699D01*
X97312500Y-106025000D01*
X97187500Y-106025000D01*
X97181374Y-106024699D01*
X97175307Y-106023799D01*
X97169357Y-106022309D01*
X97163582Y-106020242D01*
X97158038Y-106017620D01*
X97152777Y-106014467D01*
X97147850Y-106010813D01*
X97143306Y-106006694D01*
X97139187Y-106002150D01*
X97135533Y-105997223D01*
X97132380Y-105991962D01*
X97129758Y-105986418D01*
X97127691Y-105980643D01*
X97126201Y-105974693D01*
X97125301Y-105968626D01*
X97125000Y-105962500D01*
X97125000Y-104837500D01*
X97125301Y-104831374D01*
X97126201Y-104825307D01*
X97127691Y-104819357D01*
X97129758Y-104813582D01*
X97132380Y-104808038D01*
X97135533Y-104802777D01*
X97139187Y-104797850D01*
X97143306Y-104793306D01*
X97147850Y-104789187D01*
X97152777Y-104785533D01*
X97158038Y-104782380D01*
X97163582Y-104779758D01*
X97169357Y-104777691D01*
X97175307Y-104776201D01*
X97181374Y-104775301D01*
X97187500Y-104775000D01*
X97312500Y-104775000D01*
X97318626Y-104775301D01*
X97318626Y-104775301D01*
G37*
D13*
X97250000Y-105400000D03*
D12*
G36*
X96968626Y-106125301D02*
G01*
X96974693Y-106126201D01*
X96980643Y-106127691D01*
X96986418Y-106129758D01*
X96991962Y-106132380D01*
X96997223Y-106135533D01*
X97002150Y-106139187D01*
X97006694Y-106143306D01*
X97010813Y-106147850D01*
X97014467Y-106152777D01*
X97017620Y-106158038D01*
X97020242Y-106163582D01*
X97022309Y-106169357D01*
X97023799Y-106175307D01*
X97024699Y-106181374D01*
X97025000Y-106187500D01*
X97025000Y-106312500D01*
X97024699Y-106318626D01*
X97023799Y-106324693D01*
X97022309Y-106330643D01*
X97020242Y-106336418D01*
X97017620Y-106341962D01*
X97014467Y-106347223D01*
X97010813Y-106352150D01*
X97006694Y-106356694D01*
X97002150Y-106360813D01*
X96997223Y-106364467D01*
X96991962Y-106367620D01*
X96986418Y-106370242D01*
X96980643Y-106372309D01*
X96974693Y-106373799D01*
X96968626Y-106374699D01*
X96962500Y-106375000D01*
X95837500Y-106375000D01*
X95831374Y-106374699D01*
X95825307Y-106373799D01*
X95819357Y-106372309D01*
X95813582Y-106370242D01*
X95808038Y-106367620D01*
X95802777Y-106364467D01*
X95797850Y-106360813D01*
X95793306Y-106356694D01*
X95789187Y-106352150D01*
X95785533Y-106347223D01*
X95782380Y-106341962D01*
X95779758Y-106336418D01*
X95777691Y-106330643D01*
X95776201Y-106324693D01*
X95775301Y-106318626D01*
X95775000Y-106312500D01*
X95775000Y-106187500D01*
X95775301Y-106181374D01*
X95776201Y-106175307D01*
X95777691Y-106169357D01*
X95779758Y-106163582D01*
X95782380Y-106158038D01*
X95785533Y-106152777D01*
X95789187Y-106147850D01*
X95793306Y-106143306D01*
X95797850Y-106139187D01*
X95802777Y-106135533D01*
X95808038Y-106132380D01*
X95813582Y-106129758D01*
X95819357Y-106127691D01*
X95825307Y-106126201D01*
X95831374Y-106125301D01*
X95837500Y-106125000D01*
X96962500Y-106125000D01*
X96968626Y-106125301D01*
X96968626Y-106125301D01*
G37*
D13*
X96400000Y-106250000D03*
D12*
G36*
X96968626Y-106625301D02*
G01*
X96974693Y-106626201D01*
X96980643Y-106627691D01*
X96986418Y-106629758D01*
X96991962Y-106632380D01*
X96997223Y-106635533D01*
X97002150Y-106639187D01*
X97006694Y-106643306D01*
X97010813Y-106647850D01*
X97014467Y-106652777D01*
X97017620Y-106658038D01*
X97020242Y-106663582D01*
X97022309Y-106669357D01*
X97023799Y-106675307D01*
X97024699Y-106681374D01*
X97025000Y-106687500D01*
X97025000Y-106812500D01*
X97024699Y-106818626D01*
X97023799Y-106824693D01*
X97022309Y-106830643D01*
X97020242Y-106836418D01*
X97017620Y-106841962D01*
X97014467Y-106847223D01*
X97010813Y-106852150D01*
X97006694Y-106856694D01*
X97002150Y-106860813D01*
X96997223Y-106864467D01*
X96991962Y-106867620D01*
X96986418Y-106870242D01*
X96980643Y-106872309D01*
X96974693Y-106873799D01*
X96968626Y-106874699D01*
X96962500Y-106875000D01*
X95837500Y-106875000D01*
X95831374Y-106874699D01*
X95825307Y-106873799D01*
X95819357Y-106872309D01*
X95813582Y-106870242D01*
X95808038Y-106867620D01*
X95802777Y-106864467D01*
X95797850Y-106860813D01*
X95793306Y-106856694D01*
X95789187Y-106852150D01*
X95785533Y-106847223D01*
X95782380Y-106841962D01*
X95779758Y-106836418D01*
X95777691Y-106830643D01*
X95776201Y-106824693D01*
X95775301Y-106818626D01*
X95775000Y-106812500D01*
X95775000Y-106687500D01*
X95775301Y-106681374D01*
X95776201Y-106675307D01*
X95777691Y-106669357D01*
X95779758Y-106663582D01*
X95782380Y-106658038D01*
X95785533Y-106652777D01*
X95789187Y-106647850D01*
X95793306Y-106643306D01*
X95797850Y-106639187D01*
X95802777Y-106635533D01*
X95808038Y-106632380D01*
X95813582Y-106629758D01*
X95819357Y-106627691D01*
X95825307Y-106626201D01*
X95831374Y-106625301D01*
X95837500Y-106625000D01*
X96962500Y-106625000D01*
X96968626Y-106625301D01*
X96968626Y-106625301D01*
G37*
D13*
X96400000Y-106750000D03*
D12*
G36*
X96968626Y-107125301D02*
G01*
X96974693Y-107126201D01*
X96980643Y-107127691D01*
X96986418Y-107129758D01*
X96991962Y-107132380D01*
X96997223Y-107135533D01*
X97002150Y-107139187D01*
X97006694Y-107143306D01*
X97010813Y-107147850D01*
X97014467Y-107152777D01*
X97017620Y-107158038D01*
X97020242Y-107163582D01*
X97022309Y-107169357D01*
X97023799Y-107175307D01*
X97024699Y-107181374D01*
X97025000Y-107187500D01*
X97025000Y-107312500D01*
X97024699Y-107318626D01*
X97023799Y-107324693D01*
X97022309Y-107330643D01*
X97020242Y-107336418D01*
X97017620Y-107341962D01*
X97014467Y-107347223D01*
X97010813Y-107352150D01*
X97006694Y-107356694D01*
X97002150Y-107360813D01*
X96997223Y-107364467D01*
X96991962Y-107367620D01*
X96986418Y-107370242D01*
X96980643Y-107372309D01*
X96974693Y-107373799D01*
X96968626Y-107374699D01*
X96962500Y-107375000D01*
X95837500Y-107375000D01*
X95831374Y-107374699D01*
X95825307Y-107373799D01*
X95819357Y-107372309D01*
X95813582Y-107370242D01*
X95808038Y-107367620D01*
X95802777Y-107364467D01*
X95797850Y-107360813D01*
X95793306Y-107356694D01*
X95789187Y-107352150D01*
X95785533Y-107347223D01*
X95782380Y-107341962D01*
X95779758Y-107336418D01*
X95777691Y-107330643D01*
X95776201Y-107324693D01*
X95775301Y-107318626D01*
X95775000Y-107312500D01*
X95775000Y-107187500D01*
X95775301Y-107181374D01*
X95776201Y-107175307D01*
X95777691Y-107169357D01*
X95779758Y-107163582D01*
X95782380Y-107158038D01*
X95785533Y-107152777D01*
X95789187Y-107147850D01*
X95793306Y-107143306D01*
X95797850Y-107139187D01*
X95802777Y-107135533D01*
X95808038Y-107132380D01*
X95813582Y-107129758D01*
X95819357Y-107127691D01*
X95825307Y-107126201D01*
X95831374Y-107125301D01*
X95837500Y-107125000D01*
X96962500Y-107125000D01*
X96968626Y-107125301D01*
X96968626Y-107125301D01*
G37*
D13*
X96400000Y-107250000D03*
D12*
G36*
X96968626Y-107625301D02*
G01*
X96974693Y-107626201D01*
X96980643Y-107627691D01*
X96986418Y-107629758D01*
X96991962Y-107632380D01*
X96997223Y-107635533D01*
X97002150Y-107639187D01*
X97006694Y-107643306D01*
X97010813Y-107647850D01*
X97014467Y-107652777D01*
X97017620Y-107658038D01*
X97020242Y-107663582D01*
X97022309Y-107669357D01*
X97023799Y-107675307D01*
X97024699Y-107681374D01*
X97025000Y-107687500D01*
X97025000Y-107812500D01*
X97024699Y-107818626D01*
X97023799Y-107824693D01*
X97022309Y-107830643D01*
X97020242Y-107836418D01*
X97017620Y-107841962D01*
X97014467Y-107847223D01*
X97010813Y-107852150D01*
X97006694Y-107856694D01*
X97002150Y-107860813D01*
X96997223Y-107864467D01*
X96991962Y-107867620D01*
X96986418Y-107870242D01*
X96980643Y-107872309D01*
X96974693Y-107873799D01*
X96968626Y-107874699D01*
X96962500Y-107875000D01*
X95837500Y-107875000D01*
X95831374Y-107874699D01*
X95825307Y-107873799D01*
X95819357Y-107872309D01*
X95813582Y-107870242D01*
X95808038Y-107867620D01*
X95802777Y-107864467D01*
X95797850Y-107860813D01*
X95793306Y-107856694D01*
X95789187Y-107852150D01*
X95785533Y-107847223D01*
X95782380Y-107841962D01*
X95779758Y-107836418D01*
X95777691Y-107830643D01*
X95776201Y-107824693D01*
X95775301Y-107818626D01*
X95775000Y-107812500D01*
X95775000Y-107687500D01*
X95775301Y-107681374D01*
X95776201Y-107675307D01*
X95777691Y-107669357D01*
X95779758Y-107663582D01*
X95782380Y-107658038D01*
X95785533Y-107652777D01*
X95789187Y-107647850D01*
X95793306Y-107643306D01*
X95797850Y-107639187D01*
X95802777Y-107635533D01*
X95808038Y-107632380D01*
X95813582Y-107629758D01*
X95819357Y-107627691D01*
X95825307Y-107626201D01*
X95831374Y-107625301D01*
X95837500Y-107625000D01*
X96962500Y-107625000D01*
X96968626Y-107625301D01*
X96968626Y-107625301D01*
G37*
D13*
X96400000Y-107750000D03*
D12*
G36*
X98499504Y-106276204D02*
G01*
X98523773Y-106279804D01*
X98547571Y-106285765D01*
X98570671Y-106294030D01*
X98592849Y-106304520D01*
X98613893Y-106317133D01*
X98633598Y-106331747D01*
X98651777Y-106348223D01*
X98668253Y-106366402D01*
X98682867Y-106386107D01*
X98695480Y-106407151D01*
X98705970Y-106429329D01*
X98714235Y-106452429D01*
X98720196Y-106476227D01*
X98723796Y-106500496D01*
X98725000Y-106525000D01*
X98725000Y-107475000D01*
X98723796Y-107499504D01*
X98720196Y-107523773D01*
X98714235Y-107547571D01*
X98705970Y-107570671D01*
X98695480Y-107592849D01*
X98682867Y-107613893D01*
X98668253Y-107633598D01*
X98651777Y-107651777D01*
X98633598Y-107668253D01*
X98613893Y-107682867D01*
X98592849Y-107695480D01*
X98570671Y-107705970D01*
X98547571Y-107714235D01*
X98523773Y-107720196D01*
X98499504Y-107723796D01*
X98475000Y-107725000D01*
X97525000Y-107725000D01*
X97500496Y-107723796D01*
X97476227Y-107720196D01*
X97452429Y-107714235D01*
X97429329Y-107705970D01*
X97407151Y-107695480D01*
X97386107Y-107682867D01*
X97366402Y-107668253D01*
X97348223Y-107651777D01*
X97331747Y-107633598D01*
X97317133Y-107613893D01*
X97304520Y-107592849D01*
X97294030Y-107570671D01*
X97285765Y-107547571D01*
X97279804Y-107523773D01*
X97276204Y-107499504D01*
X97275000Y-107475000D01*
X97275000Y-106525000D01*
X97276204Y-106500496D01*
X97279804Y-106476227D01*
X97285765Y-106452429D01*
X97294030Y-106429329D01*
X97304520Y-106407151D01*
X97317133Y-106386107D01*
X97331747Y-106366402D01*
X97348223Y-106348223D01*
X97366402Y-106331747D01*
X97386107Y-106317133D01*
X97407151Y-106304520D01*
X97429329Y-106294030D01*
X97452429Y-106285765D01*
X97476227Y-106279804D01*
X97500496Y-106276204D01*
X97525000Y-106275000D01*
X98475000Y-106275000D01*
X98499504Y-106276204D01*
X98499504Y-106276204D01*
G37*
D14*
X98000000Y-107000000D03*
D15*
X92000000Y-101000000D03*
X92000000Y-113000000D03*
X104000000Y-113000000D03*
X104000000Y-101000000D03*
D16*
X101600000Y-107400000D03*
X96975000Y-113900006D03*
X99844990Y-109010000D03*
X93370000Y-109490000D03*
X98300000Y-103000000D03*
X101280000Y-108410000D03*
X96600000Y-103300000D03*
D17*
X98250000Y-106750000D02*
X98000000Y-107000000D01*
X99600000Y-106750000D02*
X98250000Y-106750000D01*
X100950000Y-106750000D02*
X99600000Y-106750000D01*
X101600000Y-107400000D02*
X100950000Y-106750000D01*
X98750000Y-104250000D02*
X98750000Y-105400000D01*
X101300000Y-106400000D02*
X100950000Y-106750000D01*
X101300000Y-105100000D02*
X101300000Y-106400000D01*
X99950000Y-103750000D02*
X101300000Y-105100000D01*
X99079490Y-103750000D02*
X99950000Y-103750000D01*
X98750000Y-104250000D02*
X98750000Y-104079490D01*
X98750000Y-104079490D02*
X99079490Y-103750000D01*
X98750000Y-104048680D02*
X98750000Y-104250000D01*
X99500000Y-100750000D02*
X99500000Y-103298680D01*
X99500000Y-103298680D02*
X98750000Y-104048680D01*
X97374999Y-113500007D02*
X96975000Y-113900006D01*
X99880000Y-110600000D02*
X99880000Y-110995006D01*
X99880000Y-110995006D02*
X97374999Y-113500007D01*
X99540000Y-110940000D02*
X99880000Y-110600000D01*
X99060000Y-110940000D02*
X99540000Y-110940000D01*
X98750000Y-108600000D02*
X98750000Y-110630000D01*
X98750000Y-110630000D02*
X99060000Y-110940000D01*
X99875000Y-109040010D02*
X99844990Y-109010000D01*
X99880000Y-110600000D02*
X99875000Y-110595000D01*
X99875000Y-110595000D02*
X99875000Y-109040010D01*
X95675000Y-106250000D02*
X93370000Y-108555000D01*
X96400000Y-106250000D02*
X95675000Y-106250000D01*
X93370000Y-108555000D02*
X93370000Y-109490000D01*
X98300000Y-105350000D02*
X98250000Y-105400000D01*
X98300000Y-103000000D02*
X98300000Y-105350000D01*
X101280000Y-108190000D02*
X101280000Y-108410000D01*
X100830000Y-107740000D02*
X101280000Y-108190000D01*
X99600000Y-107750000D02*
X100820000Y-107750000D01*
X100820000Y-107750000D02*
X100830000Y-107740000D01*
X97250000Y-103750000D02*
X97250000Y-105400000D01*
X96600000Y-103300000D02*
X96800000Y-103300000D01*
X96800000Y-103300000D02*
X97250000Y-103750000D01*
M02*
