G04 #@! TF.GenerationSoftware,KiCad,Pcbnew,(5.1.4)-1*
G04 #@! TF.CreationDate,2021-04-01T21:41:31+08:00*
G04 #@! TF.ProjectId,ma730,6d613733-302e-46b6-9963-61645f706362,rev?*
G04 #@! TF.SameCoordinates,Original*
G04 #@! TF.FileFunction,Soldermask,Bot*
G04 #@! TF.FilePolarity,Negative*
%FSLAX46Y46*%
G04 Gerber Fmt 4.6, Leading zero omitted, Abs format (unit mm)*
G04 Created by KiCad (PCBNEW (5.1.4)-1) date 2021-04-01 21:41:31*
%MOMM*%
%LPD*%
G04 APERTURE LIST*
%ADD10C,0.100000*%
G04 APERTURE END LIST*
D10*
G36*
X97405355Y-104725083D02*
G01*
X97410029Y-104726501D01*
X97414330Y-104728800D01*
X97420702Y-104734029D01*
X97441076Y-104747643D01*
X97463715Y-104757020D01*
X97487749Y-104761800D01*
X97512253Y-104761800D01*
X97536286Y-104757019D01*
X97558925Y-104747642D01*
X97579298Y-104734029D01*
X97585670Y-104728800D01*
X97589971Y-104726501D01*
X97594645Y-104725083D01*
X97605641Y-104724000D01*
X97894359Y-104724000D01*
X97905355Y-104725083D01*
X97910029Y-104726501D01*
X97914330Y-104728800D01*
X97920702Y-104734029D01*
X97941076Y-104747643D01*
X97963715Y-104757020D01*
X97987749Y-104761800D01*
X98012253Y-104761800D01*
X98036286Y-104757019D01*
X98058925Y-104747642D01*
X98079298Y-104734029D01*
X98085670Y-104728800D01*
X98089971Y-104726501D01*
X98094645Y-104725083D01*
X98105641Y-104724000D01*
X98394359Y-104724000D01*
X98405355Y-104725083D01*
X98410029Y-104726501D01*
X98414330Y-104728800D01*
X98420702Y-104734029D01*
X98441076Y-104747643D01*
X98463715Y-104757020D01*
X98487749Y-104761800D01*
X98512253Y-104761800D01*
X98536286Y-104757019D01*
X98558925Y-104747642D01*
X98579298Y-104734029D01*
X98585670Y-104728800D01*
X98589971Y-104726501D01*
X98594645Y-104725083D01*
X98605641Y-104724000D01*
X98894359Y-104724000D01*
X98905355Y-104725083D01*
X98910029Y-104726501D01*
X98914331Y-104728800D01*
X98918104Y-104731896D01*
X98921200Y-104735669D01*
X98923499Y-104739971D01*
X98924917Y-104744645D01*
X98926000Y-104755641D01*
X98926000Y-105949001D01*
X98928402Y-105973387D01*
X98935515Y-105996836D01*
X98947066Y-106018447D01*
X98962611Y-106037389D01*
X98981553Y-106052934D01*
X99003164Y-106064485D01*
X99026613Y-106071598D01*
X99050999Y-106074000D01*
X100244359Y-106074000D01*
X100255355Y-106075083D01*
X100260029Y-106076501D01*
X100264331Y-106078800D01*
X100268104Y-106081896D01*
X100271200Y-106085669D01*
X100273499Y-106089971D01*
X100274917Y-106094645D01*
X100276000Y-106105641D01*
X100276000Y-106394359D01*
X100274917Y-106405355D01*
X100273499Y-106410029D01*
X100271200Y-106414330D01*
X100265971Y-106420702D01*
X100252357Y-106441076D01*
X100242980Y-106463715D01*
X100238200Y-106487749D01*
X100238200Y-106512253D01*
X100242981Y-106536286D01*
X100252358Y-106558925D01*
X100265971Y-106579298D01*
X100271200Y-106585670D01*
X100273499Y-106589971D01*
X100274917Y-106594645D01*
X100276000Y-106605641D01*
X100276000Y-106894359D01*
X100274917Y-106905355D01*
X100273499Y-106910029D01*
X100271200Y-106914330D01*
X100265971Y-106920702D01*
X100252357Y-106941076D01*
X100242980Y-106963715D01*
X100238200Y-106987749D01*
X100238200Y-107012253D01*
X100242981Y-107036286D01*
X100252358Y-107058925D01*
X100265971Y-107079298D01*
X100271200Y-107085670D01*
X100273499Y-107089971D01*
X100274917Y-107094645D01*
X100276000Y-107105641D01*
X100276000Y-107394359D01*
X100274917Y-107405355D01*
X100273499Y-107410029D01*
X100271200Y-107414330D01*
X100265971Y-107420702D01*
X100252357Y-107441076D01*
X100242980Y-107463715D01*
X100238200Y-107487749D01*
X100238200Y-107512253D01*
X100242981Y-107536286D01*
X100252358Y-107558925D01*
X100265971Y-107579298D01*
X100271200Y-107585670D01*
X100273499Y-107589971D01*
X100274917Y-107594645D01*
X100276000Y-107605641D01*
X100276000Y-107894359D01*
X100274917Y-107905355D01*
X100273499Y-107910029D01*
X100271200Y-107914331D01*
X100268104Y-107918104D01*
X100264331Y-107921200D01*
X100260029Y-107923499D01*
X100255355Y-107924917D01*
X100244359Y-107926000D01*
X99050999Y-107926000D01*
X99026613Y-107928402D01*
X99003164Y-107935515D01*
X98981553Y-107947066D01*
X98962611Y-107962611D01*
X98947066Y-107981553D01*
X98935515Y-108003164D01*
X98928402Y-108026613D01*
X98926000Y-108050999D01*
X98926000Y-109244359D01*
X98924917Y-109255355D01*
X98923499Y-109260029D01*
X98921200Y-109264331D01*
X98918104Y-109268104D01*
X98914331Y-109271200D01*
X98910029Y-109273499D01*
X98905355Y-109274917D01*
X98894359Y-109276000D01*
X98605641Y-109276000D01*
X98594645Y-109274917D01*
X98589971Y-109273499D01*
X98585670Y-109271200D01*
X98579298Y-109265971D01*
X98558924Y-109252357D01*
X98536285Y-109242980D01*
X98512251Y-109238200D01*
X98487747Y-109238200D01*
X98463714Y-109242981D01*
X98441075Y-109252358D01*
X98420702Y-109265971D01*
X98414330Y-109271200D01*
X98410029Y-109273499D01*
X98405355Y-109274917D01*
X98394359Y-109276000D01*
X98105641Y-109276000D01*
X98094645Y-109274917D01*
X98089971Y-109273499D01*
X98085670Y-109271200D01*
X98079298Y-109265971D01*
X98058924Y-109252357D01*
X98036285Y-109242980D01*
X98012251Y-109238200D01*
X97987747Y-109238200D01*
X97963714Y-109242981D01*
X97941075Y-109252358D01*
X97920702Y-109265971D01*
X97914330Y-109271200D01*
X97910029Y-109273499D01*
X97905355Y-109274917D01*
X97894359Y-109276000D01*
X97605641Y-109276000D01*
X97594645Y-109274917D01*
X97589971Y-109273499D01*
X97585670Y-109271200D01*
X97579298Y-109265971D01*
X97558924Y-109252357D01*
X97536285Y-109242980D01*
X97512251Y-109238200D01*
X97487747Y-109238200D01*
X97463714Y-109242981D01*
X97441075Y-109252358D01*
X97420702Y-109265971D01*
X97414330Y-109271200D01*
X97410029Y-109273499D01*
X97405355Y-109274917D01*
X97394359Y-109276000D01*
X97105641Y-109276000D01*
X97094645Y-109274917D01*
X97089971Y-109273499D01*
X97085669Y-109271200D01*
X97081896Y-109268104D01*
X97078800Y-109264331D01*
X97076501Y-109260029D01*
X97075083Y-109255355D01*
X97074000Y-109244359D01*
X97074000Y-108050999D01*
X97071598Y-108026613D01*
X97064485Y-108003164D01*
X97052934Y-107981553D01*
X97037389Y-107962611D01*
X97018447Y-107947066D01*
X96996836Y-107935515D01*
X96973387Y-107928402D01*
X96949001Y-107926000D01*
X95755641Y-107926000D01*
X95744645Y-107924917D01*
X95739971Y-107923499D01*
X95735669Y-107921200D01*
X95731896Y-107918104D01*
X95728800Y-107914331D01*
X95726501Y-107910029D01*
X95725083Y-107905355D01*
X95724000Y-107894359D01*
X95724000Y-107605641D01*
X95725083Y-107594645D01*
X95726501Y-107589971D01*
X95728800Y-107585670D01*
X95734029Y-107579298D01*
X95747643Y-107558924D01*
X95757020Y-107536285D01*
X95761800Y-107512251D01*
X95761800Y-107487747D01*
X95757019Y-107463714D01*
X95747642Y-107441075D01*
X95734029Y-107420702D01*
X95728800Y-107414330D01*
X95726501Y-107410029D01*
X95725083Y-107405355D01*
X95724000Y-107394359D01*
X95724000Y-107105641D01*
X95725083Y-107094645D01*
X95726501Y-107089971D01*
X95728800Y-107085670D01*
X95734029Y-107079298D01*
X95747643Y-107058924D01*
X95757020Y-107036285D01*
X95761800Y-107012251D01*
X95761800Y-106987747D01*
X95757019Y-106963714D01*
X95747642Y-106941075D01*
X95734029Y-106920702D01*
X95728800Y-106914330D01*
X95726501Y-106910029D01*
X95725083Y-106905355D01*
X95724000Y-106894359D01*
X95724000Y-106605641D01*
X95725083Y-106594645D01*
X95726501Y-106589971D01*
X95728800Y-106585670D01*
X95734029Y-106579298D01*
X95747643Y-106558924D01*
X95757020Y-106536285D01*
X95761800Y-106512251D01*
X95761800Y-106487747D01*
X95757019Y-106463714D01*
X95747642Y-106441075D01*
X95734029Y-106420702D01*
X95728800Y-106414330D01*
X95726501Y-106410029D01*
X95725083Y-106405355D01*
X95724000Y-106394359D01*
X95724000Y-106105641D01*
X95725083Y-106094645D01*
X95726501Y-106089971D01*
X95728800Y-106085669D01*
X95731896Y-106081896D01*
X95735669Y-106078800D01*
X95739971Y-106076501D01*
X95744645Y-106075083D01*
X95755641Y-106074000D01*
X96949001Y-106074000D01*
X96973387Y-106071598D01*
X96996836Y-106064485D01*
X97018447Y-106052934D01*
X97037389Y-106037389D01*
X97052934Y-106018447D01*
X97064485Y-105996836D01*
X97071598Y-105973387D01*
X97074000Y-105949001D01*
X97074000Y-104755641D01*
X97075083Y-104744645D01*
X97076501Y-104739971D01*
X97078800Y-104735669D01*
X97081896Y-104731896D01*
X97085669Y-104728800D01*
X97089971Y-104726501D01*
X97094645Y-104725083D01*
X97105641Y-104724000D01*
X97394359Y-104724000D01*
X97405355Y-104725083D01*
X97405355Y-104725083D01*
G37*
G36*
X97851000Y-101181000D02*
G01*
X96149000Y-101181000D01*
X96149000Y-99479000D01*
X97851000Y-99479000D01*
X97851000Y-101181000D01*
X97851000Y-101181000D01*
G37*
G36*
X99748228Y-99511703D02*
G01*
X99903100Y-99575853D01*
X100042481Y-99668985D01*
X100161015Y-99787519D01*
X100254147Y-99926900D01*
X100318297Y-100081772D01*
X100351000Y-100246184D01*
X100351000Y-100413816D01*
X100318297Y-100578228D01*
X100254147Y-100733100D01*
X100161015Y-100872481D01*
X100042481Y-100991015D01*
X99903100Y-101084147D01*
X99748228Y-101148297D01*
X99583816Y-101181000D01*
X99416184Y-101181000D01*
X99251772Y-101148297D01*
X99096900Y-101084147D01*
X98957519Y-100991015D01*
X98838985Y-100872481D01*
X98745853Y-100733100D01*
X98681703Y-100578228D01*
X98649000Y-100413816D01*
X98649000Y-100246184D01*
X98681703Y-100081772D01*
X98745853Y-99926900D01*
X98838985Y-99787519D01*
X98957519Y-99668985D01*
X99096900Y-99575853D01*
X99251772Y-99511703D01*
X99416184Y-99479000D01*
X99583816Y-99479000D01*
X99748228Y-99511703D01*
X99748228Y-99511703D01*
G37*
M02*
