G04 #@! TF.GenerationSoftware,KiCad,Pcbnew,(5.1.4)-1*
G04 #@! TF.CreationDate,2021-04-01T21:41:31+08:00*
G04 #@! TF.ProjectId,ma730,6d613733-302e-46b6-9963-61645f706362,rev?*
G04 #@! TF.SameCoordinates,Original*
G04 #@! TF.FileFunction,Soldermask,Top*
G04 #@! TF.FilePolarity,Negative*
%FSLAX46Y46*%
G04 Gerber Fmt 4.6, Leading zero omitted, Abs format (unit mm)*
G04 Created by KiCad (PCBNEW (5.1.4)-1) date 2021-04-01 21:41:31*
%MOMM*%
%LPD*%
G04 APERTURE LIST*
%ADD10C,0.100000*%
G04 APERTURE END LIST*
D10*
G36*
X97389499Y-113378445D02*
G01*
X97426995Y-113389820D01*
X97461554Y-113408292D01*
X97491847Y-113433153D01*
X97516708Y-113463446D01*
X97535180Y-113498005D01*
X97546555Y-113535501D01*
X97551000Y-113580638D01*
X97551000Y-114219362D01*
X97546555Y-114264499D01*
X97535180Y-114301995D01*
X97516708Y-114336554D01*
X97491847Y-114366847D01*
X97461554Y-114391708D01*
X97426995Y-114410180D01*
X97389499Y-114421555D01*
X97344362Y-114426000D01*
X96605638Y-114426000D01*
X96560501Y-114421555D01*
X96523005Y-114410180D01*
X96488446Y-114391708D01*
X96458153Y-114366847D01*
X96433292Y-114336554D01*
X96414820Y-114301995D01*
X96403445Y-114264499D01*
X96399000Y-114219362D01*
X96399000Y-113580638D01*
X96403445Y-113535501D01*
X96414820Y-113498005D01*
X96433292Y-113463446D01*
X96458153Y-113433153D01*
X96488446Y-113408292D01*
X96523005Y-113389820D01*
X96560501Y-113378445D01*
X96605638Y-113374000D01*
X97344362Y-113374000D01*
X97389499Y-113378445D01*
X97389499Y-113378445D01*
G37*
G36*
X99139499Y-113378445D02*
G01*
X99176995Y-113389820D01*
X99211554Y-113408292D01*
X99241847Y-113433153D01*
X99266708Y-113463446D01*
X99285180Y-113498005D01*
X99296555Y-113535501D01*
X99301000Y-113580638D01*
X99301000Y-114219362D01*
X99296555Y-114264499D01*
X99285180Y-114301995D01*
X99266708Y-114336554D01*
X99241847Y-114366847D01*
X99211554Y-114391708D01*
X99176995Y-114410180D01*
X99139499Y-114421555D01*
X99094362Y-114426000D01*
X98355638Y-114426000D01*
X98310501Y-114421555D01*
X98273005Y-114410180D01*
X98238446Y-114391708D01*
X98208153Y-114366847D01*
X98183292Y-114336554D01*
X98164820Y-114301995D01*
X98153445Y-114264499D01*
X98149000Y-114219362D01*
X98149000Y-113580638D01*
X98153445Y-113535501D01*
X98164820Y-113498005D01*
X98183292Y-113463446D01*
X98208153Y-113433153D01*
X98238446Y-113408292D01*
X98273005Y-113389820D01*
X98310501Y-113378445D01*
X98355638Y-113374000D01*
X99094362Y-113374000D01*
X99139499Y-113378445D01*
X99139499Y-113378445D01*
G37*
G36*
X98884928Y-109051764D02*
G01*
X98906009Y-109058160D01*
X98925445Y-109068548D01*
X98942476Y-109082524D01*
X98956452Y-109099555D01*
X98966840Y-109118991D01*
X98973236Y-109140072D01*
X98976000Y-109168140D01*
X98976000Y-110731860D01*
X98973236Y-110759928D01*
X98966840Y-110781009D01*
X98956452Y-110800445D01*
X98942476Y-110817476D01*
X98925445Y-110831452D01*
X98906009Y-110841840D01*
X98884928Y-110848236D01*
X98856860Y-110851000D01*
X98393140Y-110851000D01*
X98365072Y-110848236D01*
X98343991Y-110841840D01*
X98324555Y-110831452D01*
X98307524Y-110817476D01*
X98293548Y-110800445D01*
X98283160Y-110781009D01*
X98276764Y-110759928D01*
X98274000Y-110731860D01*
X98274000Y-109168140D01*
X98276764Y-109140072D01*
X98283160Y-109118991D01*
X98293548Y-109099555D01*
X98307524Y-109082524D01*
X98324555Y-109068548D01*
X98343991Y-109058160D01*
X98365072Y-109051764D01*
X98393140Y-109049000D01*
X98856860Y-109049000D01*
X98884928Y-109051764D01*
X98884928Y-109051764D01*
G37*
G36*
X101384928Y-109051764D02*
G01*
X101406009Y-109058160D01*
X101425445Y-109068548D01*
X101442476Y-109082524D01*
X101456452Y-109099555D01*
X101466840Y-109118991D01*
X101473236Y-109140072D01*
X101476000Y-109168140D01*
X101476000Y-110731860D01*
X101473236Y-110759928D01*
X101466840Y-110781009D01*
X101456452Y-110800445D01*
X101442476Y-110817476D01*
X101425445Y-110831452D01*
X101406009Y-110841840D01*
X101384928Y-110848236D01*
X101356860Y-110851000D01*
X100893140Y-110851000D01*
X100865072Y-110848236D01*
X100843991Y-110841840D01*
X100824555Y-110831452D01*
X100807524Y-110817476D01*
X100793548Y-110800445D01*
X100783160Y-110781009D01*
X100776764Y-110759928D01*
X100774000Y-110731860D01*
X100774000Y-109168140D01*
X100776764Y-109140072D01*
X100783160Y-109118991D01*
X100793548Y-109099555D01*
X100807524Y-109082524D01*
X100824555Y-109068548D01*
X100843991Y-109058160D01*
X100865072Y-109051764D01*
X100893140Y-109049000D01*
X101356860Y-109049000D01*
X101384928Y-109051764D01*
X101384928Y-109051764D01*
G37*
G36*
X95134928Y-109051764D02*
G01*
X95156009Y-109058160D01*
X95175445Y-109068548D01*
X95192476Y-109082524D01*
X95206452Y-109099555D01*
X95216840Y-109118991D01*
X95223236Y-109140072D01*
X95226000Y-109168140D01*
X95226000Y-110731860D01*
X95223236Y-110759928D01*
X95216840Y-110781009D01*
X95206452Y-110800445D01*
X95192476Y-110817476D01*
X95175445Y-110831452D01*
X95156009Y-110841840D01*
X95134928Y-110848236D01*
X95106860Y-110851000D01*
X94643140Y-110851000D01*
X94615072Y-110848236D01*
X94593991Y-110841840D01*
X94574555Y-110831452D01*
X94557524Y-110817476D01*
X94543548Y-110800445D01*
X94533160Y-110781009D01*
X94526764Y-110759928D01*
X94524000Y-110731860D01*
X94524000Y-109168140D01*
X94526764Y-109140072D01*
X94533160Y-109118991D01*
X94543548Y-109099555D01*
X94557524Y-109082524D01*
X94574555Y-109068548D01*
X94593991Y-109058160D01*
X94615072Y-109051764D01*
X94643140Y-109049000D01*
X95106860Y-109049000D01*
X95134928Y-109051764D01*
X95134928Y-109051764D01*
G37*
G36*
X96384928Y-109051764D02*
G01*
X96406009Y-109058160D01*
X96425445Y-109068548D01*
X96442476Y-109082524D01*
X96456452Y-109099555D01*
X96466840Y-109118991D01*
X96473236Y-109140072D01*
X96476000Y-109168140D01*
X96476000Y-110731860D01*
X96473236Y-110759928D01*
X96466840Y-110781009D01*
X96456452Y-110800445D01*
X96442476Y-110817476D01*
X96425445Y-110831452D01*
X96406009Y-110841840D01*
X96384928Y-110848236D01*
X96356860Y-110851000D01*
X95893140Y-110851000D01*
X95865072Y-110848236D01*
X95843991Y-110841840D01*
X95824555Y-110831452D01*
X95807524Y-110817476D01*
X95793548Y-110800445D01*
X95783160Y-110781009D01*
X95776764Y-110759928D01*
X95774000Y-110731860D01*
X95774000Y-109168140D01*
X95776764Y-109140072D01*
X95783160Y-109118991D01*
X95793548Y-109099555D01*
X95807524Y-109082524D01*
X95824555Y-109068548D01*
X95843991Y-109058160D01*
X95865072Y-109051764D01*
X95893140Y-109049000D01*
X96356860Y-109049000D01*
X96384928Y-109051764D01*
X96384928Y-109051764D01*
G37*
G36*
X97634928Y-109051764D02*
G01*
X97656009Y-109058160D01*
X97675445Y-109068548D01*
X97692476Y-109082524D01*
X97706452Y-109099555D01*
X97716840Y-109118991D01*
X97723236Y-109140072D01*
X97726000Y-109168140D01*
X97726000Y-110731860D01*
X97723236Y-110759928D01*
X97716840Y-110781009D01*
X97706452Y-110800445D01*
X97692476Y-110817476D01*
X97675445Y-110831452D01*
X97656009Y-110841840D01*
X97634928Y-110848236D01*
X97606860Y-110851000D01*
X97143140Y-110851000D01*
X97115072Y-110848236D01*
X97093991Y-110841840D01*
X97074555Y-110831452D01*
X97057524Y-110817476D01*
X97043548Y-110800445D01*
X97033160Y-110781009D01*
X97026764Y-110759928D01*
X97024000Y-110731860D01*
X97024000Y-109168140D01*
X97026764Y-109140072D01*
X97033160Y-109118991D01*
X97043548Y-109099555D01*
X97057524Y-109082524D01*
X97074555Y-109068548D01*
X97093991Y-109058160D01*
X97115072Y-109051764D01*
X97143140Y-109049000D01*
X97606860Y-109049000D01*
X97634928Y-109051764D01*
X97634928Y-109051764D01*
G37*
G36*
X100134928Y-109051764D02*
G01*
X100156009Y-109058160D01*
X100175445Y-109068548D01*
X100192476Y-109082524D01*
X100206452Y-109099555D01*
X100216840Y-109118991D01*
X100223236Y-109140072D01*
X100226000Y-109168140D01*
X100226000Y-110731860D01*
X100223236Y-110759928D01*
X100216840Y-110781009D01*
X100206452Y-110800445D01*
X100192476Y-110817476D01*
X100175445Y-110831452D01*
X100156009Y-110841840D01*
X100134928Y-110848236D01*
X100106860Y-110851000D01*
X99643140Y-110851000D01*
X99615072Y-110848236D01*
X99593991Y-110841840D01*
X99574555Y-110831452D01*
X99557524Y-110817476D01*
X99543548Y-110800445D01*
X99533160Y-110781009D01*
X99526764Y-110759928D01*
X99524000Y-110731860D01*
X99524000Y-109168140D01*
X99526764Y-109140072D01*
X99533160Y-109118991D01*
X99543548Y-109099555D01*
X99557524Y-109082524D01*
X99574555Y-109068548D01*
X99593991Y-109058160D01*
X99615072Y-109051764D01*
X99643140Y-109049000D01*
X100106860Y-109049000D01*
X100134928Y-109051764D01*
X100134928Y-109051764D01*
G37*
G36*
X103354434Y-105153686D02*
G01*
X103394284Y-105165774D01*
X103430999Y-105185399D01*
X103463186Y-105211814D01*
X103489601Y-105244001D01*
X103509226Y-105280716D01*
X103521314Y-105320566D01*
X103526000Y-105368141D01*
X103526000Y-107831859D01*
X103521314Y-107879434D01*
X103509226Y-107919284D01*
X103489601Y-107955999D01*
X103463186Y-107988186D01*
X103430999Y-108014601D01*
X103394284Y-108034226D01*
X103354434Y-108046314D01*
X103306859Y-108051000D01*
X102643141Y-108051000D01*
X102595566Y-108046314D01*
X102555716Y-108034226D01*
X102519001Y-108014601D01*
X102486814Y-107988186D01*
X102460399Y-107955999D01*
X102440774Y-107919284D01*
X102428686Y-107879434D01*
X102424000Y-107831859D01*
X102424000Y-105368141D01*
X102428686Y-105320566D01*
X102440774Y-105280716D01*
X102460399Y-105244001D01*
X102486814Y-105211814D01*
X102519001Y-105185399D01*
X102555716Y-105165774D01*
X102595566Y-105153686D01*
X102643141Y-105149000D01*
X103306859Y-105149000D01*
X103354434Y-105153686D01*
X103354434Y-105153686D01*
G37*
G36*
X93404434Y-105153686D02*
G01*
X93444284Y-105165774D01*
X93480999Y-105185399D01*
X93513186Y-105211814D01*
X93539601Y-105244001D01*
X93559226Y-105280716D01*
X93571314Y-105320566D01*
X93576000Y-105368141D01*
X93576000Y-107831859D01*
X93571314Y-107879434D01*
X93559226Y-107919284D01*
X93539601Y-107955999D01*
X93513186Y-107988186D01*
X93480999Y-108014601D01*
X93444284Y-108034226D01*
X93404434Y-108046314D01*
X93356859Y-108051000D01*
X92693141Y-108051000D01*
X92645566Y-108046314D01*
X92605716Y-108034226D01*
X92569001Y-108014601D01*
X92536814Y-107988186D01*
X92510399Y-107955999D01*
X92490774Y-107919284D01*
X92478686Y-107879434D01*
X92474000Y-107831859D01*
X92474000Y-105368141D01*
X92478686Y-105320566D01*
X92490774Y-105280716D01*
X92510399Y-105244001D01*
X92536814Y-105211814D01*
X92569001Y-105185399D01*
X92605716Y-105165774D01*
X92645566Y-105153686D01*
X92693141Y-105149000D01*
X93356859Y-105149000D01*
X93404434Y-105153686D01*
X93404434Y-105153686D01*
G37*
G36*
X99748228Y-99511703D02*
G01*
X99903100Y-99575853D01*
X100042481Y-99668985D01*
X100161015Y-99787519D01*
X100254147Y-99926900D01*
X100318297Y-100081772D01*
X100351000Y-100246184D01*
X100351000Y-100413816D01*
X100318297Y-100578228D01*
X100254147Y-100733100D01*
X100161015Y-100872481D01*
X100042481Y-100991015D01*
X99903100Y-101084147D01*
X99748228Y-101148297D01*
X99583816Y-101181000D01*
X99416184Y-101181000D01*
X99251772Y-101148297D01*
X99096900Y-101084147D01*
X98957519Y-100991015D01*
X98838985Y-100872481D01*
X98745853Y-100733100D01*
X98681703Y-100578228D01*
X98649000Y-100413816D01*
X98649000Y-100246184D01*
X98681703Y-100081772D01*
X98745853Y-99926900D01*
X98838985Y-99787519D01*
X98957519Y-99668985D01*
X99096900Y-99575853D01*
X99251772Y-99511703D01*
X99416184Y-99479000D01*
X99583816Y-99479000D01*
X99748228Y-99511703D01*
X99748228Y-99511703D01*
G37*
G36*
X97851000Y-101181000D02*
G01*
X96149000Y-101181000D01*
X96149000Y-99479000D01*
X97851000Y-99479000D01*
X97851000Y-101181000D01*
X97851000Y-101181000D01*
G37*
M02*
