G04 #@! TF.GenerationSoftware,KiCad,Pcbnew,(5.1.4)-1*
G04 #@! TF.CreationDate,2021-04-01T21:41:31+08:00*
G04 #@! TF.ProjectId,ma730,6d613733-302e-46b6-9963-61645f706362,rev?*
G04 #@! TF.SameCoordinates,Original*
G04 #@! TF.FileFunction,Legend,Top*
G04 #@! TF.FilePolarity,Positive*
%FSLAX46Y46*%
G04 Gerber Fmt 4.6, Leading zero omitted, Abs format (unit mm)*
G04 Created by KiCad (PCBNEW (5.1.4)-1) date 2021-04-01 21:41:31*
%MOMM*%
%LPD*%
G04 APERTURE LIST*
%ADD10C,0.150000*%
%ADD11C,0.120000*%
G04 APERTURE END LIST*
D10*
X100870000Y-112557142D02*
X100841428Y-112614285D01*
X100841428Y-112700000D01*
X100870000Y-112785714D01*
X100927142Y-112842857D01*
X100984285Y-112871428D01*
X101098571Y-112900000D01*
X101184285Y-112900000D01*
X101298571Y-112871428D01*
X101355714Y-112842857D01*
X101412857Y-112785714D01*
X101441428Y-112700000D01*
X101441428Y-112642857D01*
X101412857Y-112557142D01*
X101384285Y-112528571D01*
X101184285Y-112528571D01*
X101184285Y-112642857D01*
X101441428Y-112271428D02*
X100841428Y-112271428D01*
X101441428Y-111928571D01*
X100841428Y-111928571D01*
X101441428Y-111642857D02*
X100841428Y-111642857D01*
X100841428Y-111500000D01*
X100870000Y-111414285D01*
X100927142Y-111357142D01*
X100984285Y-111328571D01*
X101098571Y-111300000D01*
X101184285Y-111300000D01*
X101298571Y-111328571D01*
X101355714Y-111357142D01*
X101412857Y-111414285D01*
X101441428Y-111500000D01*
X101441428Y-111642857D01*
X99601428Y-112995714D02*
X99601428Y-112624285D01*
X99830000Y-112824285D01*
X99830000Y-112738571D01*
X99858571Y-112681428D01*
X99887142Y-112652857D01*
X99944285Y-112624285D01*
X100087142Y-112624285D01*
X100144285Y-112652857D01*
X100172857Y-112681428D01*
X100201428Y-112738571D01*
X100201428Y-112910000D01*
X100172857Y-112967142D01*
X100144285Y-112995714D01*
X100144285Y-112367142D02*
X100172857Y-112338571D01*
X100201428Y-112367142D01*
X100172857Y-112395714D01*
X100144285Y-112367142D01*
X100201428Y-112367142D01*
X99601428Y-112138571D02*
X99601428Y-111767142D01*
X99830000Y-111967142D01*
X99830000Y-111881428D01*
X99858571Y-111824285D01*
X99887142Y-111795714D01*
X99944285Y-111767142D01*
X100087142Y-111767142D01*
X100144285Y-111795714D01*
X100172857Y-111824285D01*
X100201428Y-111881428D01*
X100201428Y-112052857D01*
X100172857Y-112110000D01*
X100144285Y-112138571D01*
X99601428Y-111595714D02*
X100201428Y-111395714D01*
X99601428Y-111195714D01*
X94967857Y-113039285D02*
X94967857Y-112582142D01*
X95139285Y-111953571D02*
X95167857Y-111982142D01*
X95196428Y-112067857D01*
X95196428Y-112125000D01*
X95167857Y-112210714D01*
X95110714Y-112267857D01*
X95053571Y-112296428D01*
X94939285Y-112325000D01*
X94853571Y-112325000D01*
X94739285Y-112296428D01*
X94682142Y-112267857D01*
X94625000Y-112210714D01*
X94596428Y-112125000D01*
X94596428Y-112067857D01*
X94625000Y-111982142D01*
X94653571Y-111953571D01*
X95167857Y-111725000D02*
X95196428Y-111639285D01*
X95196428Y-111496428D01*
X95167857Y-111439285D01*
X95139285Y-111410714D01*
X95082142Y-111382142D01*
X95025000Y-111382142D01*
X94967857Y-111410714D01*
X94939285Y-111439285D01*
X94910714Y-111496428D01*
X94882142Y-111610714D01*
X94853571Y-111667857D01*
X94825000Y-111696428D01*
X94767857Y-111725000D01*
X94710714Y-111725000D01*
X94653571Y-111696428D01*
X94625000Y-111667857D01*
X94596428Y-111610714D01*
X94596428Y-111467857D01*
X94625000Y-111382142D01*
X96417857Y-113064285D02*
X96446428Y-112978571D01*
X96446428Y-112835714D01*
X96417857Y-112778571D01*
X96389285Y-112750000D01*
X96332142Y-112721428D01*
X96275000Y-112721428D01*
X96217857Y-112750000D01*
X96189285Y-112778571D01*
X96160714Y-112835714D01*
X96132142Y-112950000D01*
X96103571Y-113007142D01*
X96075000Y-113035714D01*
X96017857Y-113064285D01*
X95960714Y-113064285D01*
X95903571Y-113035714D01*
X95875000Y-113007142D01*
X95846428Y-112950000D01*
X95846428Y-112807142D01*
X95875000Y-112721428D01*
X96389285Y-112121428D02*
X96417857Y-112150000D01*
X96446428Y-112235714D01*
X96446428Y-112292857D01*
X96417857Y-112378571D01*
X96360714Y-112435714D01*
X96303571Y-112464285D01*
X96189285Y-112492857D01*
X96103571Y-112492857D01*
X95989285Y-112464285D01*
X95932142Y-112435714D01*
X95875000Y-112378571D01*
X95846428Y-112292857D01*
X95846428Y-112235714D01*
X95875000Y-112150000D01*
X95903571Y-112121428D01*
X96446428Y-111578571D02*
X96446428Y-111864285D01*
X95846428Y-111864285D01*
X96446428Y-111378571D02*
X95846428Y-111378571D01*
X96446428Y-111035714D02*
X96103571Y-111292857D01*
X95846428Y-111035714D02*
X96189285Y-111378571D01*
X97671428Y-112917857D02*
X97071428Y-112917857D01*
X97500000Y-112717857D01*
X97071428Y-112517857D01*
X97671428Y-112517857D01*
X97671428Y-112232142D02*
X97071428Y-112232142D01*
X97642857Y-111975000D02*
X97671428Y-111889285D01*
X97671428Y-111746428D01*
X97642857Y-111689285D01*
X97614285Y-111660714D01*
X97557142Y-111632142D01*
X97500000Y-111632142D01*
X97442857Y-111660714D01*
X97414285Y-111689285D01*
X97385714Y-111746428D01*
X97357142Y-111860714D01*
X97328571Y-111917857D01*
X97300000Y-111946428D01*
X97242857Y-111975000D01*
X97185714Y-111975000D01*
X97128571Y-111946428D01*
X97100000Y-111917857D01*
X97071428Y-111860714D01*
X97071428Y-111717857D01*
X97100000Y-111632142D01*
X97071428Y-111260714D02*
X97071428Y-111146428D01*
X97100000Y-111089285D01*
X97157142Y-111032142D01*
X97271428Y-111003571D01*
X97471428Y-111003571D01*
X97585714Y-111032142D01*
X97642857Y-111089285D01*
X97671428Y-111146428D01*
X97671428Y-111260714D01*
X97642857Y-111317857D01*
X97585714Y-111375000D01*
X97471428Y-111403571D01*
X97271428Y-111403571D01*
X97157142Y-111375000D01*
X97100000Y-111317857D01*
X97071428Y-111260714D01*
X98946428Y-112967857D02*
X98346428Y-112967857D01*
X98775000Y-112767857D01*
X98346428Y-112567857D01*
X98946428Y-112567857D01*
X98346428Y-112167857D02*
X98346428Y-112053571D01*
X98375000Y-111996428D01*
X98432142Y-111939285D01*
X98546428Y-111910714D01*
X98746428Y-111910714D01*
X98860714Y-111939285D01*
X98917857Y-111996428D01*
X98946428Y-112053571D01*
X98946428Y-112167857D01*
X98917857Y-112225000D01*
X98860714Y-112282142D01*
X98746428Y-112310714D01*
X98546428Y-112310714D01*
X98432142Y-112282142D01*
X98375000Y-112225000D01*
X98346428Y-112167857D01*
X98917857Y-111682142D02*
X98946428Y-111596428D01*
X98946428Y-111453571D01*
X98917857Y-111396428D01*
X98889285Y-111367857D01*
X98832142Y-111339285D01*
X98775000Y-111339285D01*
X98717857Y-111367857D01*
X98689285Y-111396428D01*
X98660714Y-111453571D01*
X98632142Y-111567857D01*
X98603571Y-111625000D01*
X98575000Y-111653571D01*
X98517857Y-111682142D01*
X98460714Y-111682142D01*
X98403571Y-111653571D01*
X98375000Y-111625000D01*
X98346428Y-111567857D01*
X98346428Y-111425000D01*
X98375000Y-111339285D01*
X98946428Y-111082142D02*
X98346428Y-111082142D01*
D11*
X95064759Y-98176000D02*
X95064759Y-98806000D01*
X94749759Y-98491000D02*
X95379759Y-98491000D01*
X101491000Y-99928000D02*
X101491000Y-100732000D01*
X101451000Y-99697000D02*
X101451000Y-100963000D01*
X101411000Y-99528000D02*
X101411000Y-101132000D01*
X101371000Y-99390000D02*
X101371000Y-101270000D01*
X101331000Y-99271000D02*
X101331000Y-101389000D01*
X101291000Y-99165000D02*
X101291000Y-101495000D01*
X101251000Y-99068000D02*
X101251000Y-101592000D01*
X101211000Y-98980000D02*
X101211000Y-101680000D01*
X101171000Y-98898000D02*
X101171000Y-101762000D01*
X101131000Y-98821000D02*
X101131000Y-101839000D01*
X101091000Y-98749000D02*
X101091000Y-101911000D01*
X101051000Y-98680000D02*
X101051000Y-101980000D01*
X101011000Y-98616000D02*
X101011000Y-102044000D01*
X100971000Y-98554000D02*
X100971000Y-102106000D01*
X100931000Y-98496000D02*
X100931000Y-102164000D01*
X100891000Y-98440000D02*
X100891000Y-102220000D01*
X100851000Y-98386000D02*
X100851000Y-102274000D01*
X100811000Y-98335000D02*
X100811000Y-102325000D01*
X100771000Y-98286000D02*
X100771000Y-102374000D01*
X100731000Y-98238000D02*
X100731000Y-102422000D01*
X100691000Y-98193000D02*
X100691000Y-102467000D01*
X100651000Y-98148000D02*
X100651000Y-102512000D01*
X100611000Y-98106000D02*
X100611000Y-102554000D01*
X100571000Y-98065000D02*
X100571000Y-102595000D01*
X100531000Y-101370000D02*
X100531000Y-102635000D01*
X100531000Y-98025000D02*
X100531000Y-99290000D01*
X100491000Y-101370000D02*
X100491000Y-102673000D01*
X100491000Y-97987000D02*
X100491000Y-99290000D01*
X100451000Y-101370000D02*
X100451000Y-102710000D01*
X100451000Y-97950000D02*
X100451000Y-99290000D01*
X100411000Y-101370000D02*
X100411000Y-102746000D01*
X100411000Y-97914000D02*
X100411000Y-99290000D01*
X100371000Y-101370000D02*
X100371000Y-102780000D01*
X100371000Y-97880000D02*
X100371000Y-99290000D01*
X100331000Y-101370000D02*
X100331000Y-102814000D01*
X100331000Y-97846000D02*
X100331000Y-99290000D01*
X100291000Y-101370000D02*
X100291000Y-102846000D01*
X100291000Y-97814000D02*
X100291000Y-99290000D01*
X100251000Y-101370000D02*
X100251000Y-102878000D01*
X100251000Y-97782000D02*
X100251000Y-99290000D01*
X100211000Y-101370000D02*
X100211000Y-102908000D01*
X100211000Y-97752000D02*
X100211000Y-99290000D01*
X100171000Y-101370000D02*
X100171000Y-102937000D01*
X100171000Y-97723000D02*
X100171000Y-99290000D01*
X100131000Y-101370000D02*
X100131000Y-102966000D01*
X100131000Y-97694000D02*
X100131000Y-99290000D01*
X100091000Y-101370000D02*
X100091000Y-102994000D01*
X100091000Y-97666000D02*
X100091000Y-99290000D01*
X100051000Y-101370000D02*
X100051000Y-103020000D01*
X100051000Y-97640000D02*
X100051000Y-99290000D01*
X100011000Y-101370000D02*
X100011000Y-103046000D01*
X100011000Y-97614000D02*
X100011000Y-99290000D01*
X99971000Y-101370000D02*
X99971000Y-103072000D01*
X99971000Y-97588000D02*
X99971000Y-99290000D01*
X99931000Y-101370000D02*
X99931000Y-103096000D01*
X99931000Y-97564000D02*
X99931000Y-99290000D01*
X99891000Y-101370000D02*
X99891000Y-103120000D01*
X99891000Y-97540000D02*
X99891000Y-99290000D01*
X99851000Y-101370000D02*
X99851000Y-103142000D01*
X99851000Y-97518000D02*
X99851000Y-99290000D01*
X99811000Y-101370000D02*
X99811000Y-103164000D01*
X99811000Y-97496000D02*
X99811000Y-99290000D01*
X99771000Y-101370000D02*
X99771000Y-103186000D01*
X99771000Y-97474000D02*
X99771000Y-99290000D01*
X99731000Y-101370000D02*
X99731000Y-103206000D01*
X99731000Y-97454000D02*
X99731000Y-99290000D01*
X99691000Y-101370000D02*
X99691000Y-103226000D01*
X99691000Y-97434000D02*
X99691000Y-99290000D01*
X99651000Y-101370000D02*
X99651000Y-103246000D01*
X99651000Y-97414000D02*
X99651000Y-99290000D01*
X99611000Y-101370000D02*
X99611000Y-103264000D01*
X99611000Y-97396000D02*
X99611000Y-99290000D01*
X99571000Y-101370000D02*
X99571000Y-103282000D01*
X99571000Y-97378000D02*
X99571000Y-99290000D01*
X99531000Y-101370000D02*
X99531000Y-103300000D01*
X99531000Y-97360000D02*
X99531000Y-99290000D01*
X99491000Y-101370000D02*
X99491000Y-103316000D01*
X99491000Y-97344000D02*
X99491000Y-99290000D01*
X99451000Y-101370000D02*
X99451000Y-103332000D01*
X99451000Y-97328000D02*
X99451000Y-99290000D01*
X99411000Y-101370000D02*
X99411000Y-103348000D01*
X99411000Y-97312000D02*
X99411000Y-99290000D01*
X99371000Y-101370000D02*
X99371000Y-103363000D01*
X99371000Y-97297000D02*
X99371000Y-99290000D01*
X99331000Y-101370000D02*
X99331000Y-103377000D01*
X99331000Y-97283000D02*
X99331000Y-99290000D01*
X99291000Y-101370000D02*
X99291000Y-103391000D01*
X99291000Y-97269000D02*
X99291000Y-99290000D01*
X99251000Y-101370000D02*
X99251000Y-103404000D01*
X99251000Y-97256000D02*
X99251000Y-99290000D01*
X99211000Y-101370000D02*
X99211000Y-103416000D01*
X99211000Y-97244000D02*
X99211000Y-99290000D01*
X99171000Y-101370000D02*
X99171000Y-103428000D01*
X99171000Y-97232000D02*
X99171000Y-99290000D01*
X99131000Y-101370000D02*
X99131000Y-103440000D01*
X99131000Y-97220000D02*
X99131000Y-99290000D01*
X99091000Y-101370000D02*
X99091000Y-103451000D01*
X99091000Y-97209000D02*
X99091000Y-99290000D01*
X99051000Y-101370000D02*
X99051000Y-103461000D01*
X99051000Y-97199000D02*
X99051000Y-99290000D01*
X99011000Y-101370000D02*
X99011000Y-103471000D01*
X99011000Y-97189000D02*
X99011000Y-99290000D01*
X98971000Y-101370000D02*
X98971000Y-103480000D01*
X98971000Y-97180000D02*
X98971000Y-99290000D01*
X98930000Y-101370000D02*
X98930000Y-103489000D01*
X98930000Y-97171000D02*
X98930000Y-99290000D01*
X98890000Y-101370000D02*
X98890000Y-103497000D01*
X98890000Y-97163000D02*
X98890000Y-99290000D01*
X98850000Y-101370000D02*
X98850000Y-103505000D01*
X98850000Y-97155000D02*
X98850000Y-99290000D01*
X98810000Y-101370000D02*
X98810000Y-103512000D01*
X98810000Y-97148000D02*
X98810000Y-99290000D01*
X98770000Y-101370000D02*
X98770000Y-103519000D01*
X98770000Y-97141000D02*
X98770000Y-99290000D01*
X98730000Y-101370000D02*
X98730000Y-103525000D01*
X98730000Y-97135000D02*
X98730000Y-99290000D01*
X98690000Y-101370000D02*
X98690000Y-103531000D01*
X98690000Y-97129000D02*
X98690000Y-99290000D01*
X98650000Y-101370000D02*
X98650000Y-103536000D01*
X98650000Y-97124000D02*
X98650000Y-99290000D01*
X98610000Y-101370000D02*
X98610000Y-103541000D01*
X98610000Y-97119000D02*
X98610000Y-99290000D01*
X98570000Y-101370000D02*
X98570000Y-103545000D01*
X98570000Y-97115000D02*
X98570000Y-99290000D01*
X98530000Y-101370000D02*
X98530000Y-103548000D01*
X98530000Y-97112000D02*
X98530000Y-99290000D01*
X98490000Y-101370000D02*
X98490000Y-103552000D01*
X98490000Y-97108000D02*
X98490000Y-99290000D01*
X98450000Y-97106000D02*
X98450000Y-103554000D01*
X98410000Y-97103000D02*
X98410000Y-103557000D01*
X98370000Y-97102000D02*
X98370000Y-103558000D01*
X98330000Y-97100000D02*
X98330000Y-103560000D01*
X98290000Y-97100000D02*
X98290000Y-103560000D01*
X98250000Y-97100000D02*
X98250000Y-103560000D01*
X101520000Y-100330000D02*
G75*
G03X101520000Y-100330000I-3270000J0D01*
G01*
X93785000Y-105390000D02*
X102215000Y-105390000D01*
X103485000Y-109860000D02*
X101685000Y-109860000D01*
X103485000Y-108260000D02*
X103485000Y-109860000D01*
X94315000Y-109860000D02*
X94315000Y-110800000D01*
X92515000Y-109860000D02*
X94315000Y-109860000D01*
X92515000Y-108260000D02*
X92515000Y-109860000D01*
X97678733Y-114410000D02*
X98021267Y-114410000D01*
X97678733Y-113390000D02*
X98021267Y-113390000D01*
D10*
X93619047Y-100651428D02*
X94380952Y-100651428D01*
X94000000Y-101032380D02*
X94000000Y-100270476D01*
M02*
